<svg width="18" height="17" viewBox="0 0 18 17" fill="none" xmlns="http://www.w3.org/2000/svg">
<path d="M9.15789 1.63386C11.3704 1.63386 11.6317 1.63386 12.505 1.68259C13.0308 1.68898 13.5516 1.78523 14.045 1.96719C14.4021 2.10541 14.7263 2.31676 14.9969 2.58768C15.2675 2.85859 15.4784 3.1831 15.6162 3.54035C15.7989 4.03289 15.8958 4.55312 15.9027 5.07841C15.9417 5.95173 15.9495 6.21489 15.9495 8.42743C15.9495 10.64 15.9495 10.9012 15.9027 11.7745C15.8958 12.2998 15.7989 12.82 15.6162 13.3126C15.4784 13.6698 15.2675 13.9943 14.9969 14.2652C14.7263 14.5361 14.4021 14.7475 14.045 14.8857C13.5516 15.0677 13.0308 15.1639 12.505 15.1703C11.6317 15.2093 11.3704 15.2191 9.15789 15.2191C6.94535 15.2191 6.68412 15.2191 5.8108 15.1703C5.2856 15.1642 4.76537 15.068 4.27277 14.8857C3.91521 14.7479 3.59047 14.5368 3.31952 14.2658C3.04856 13.9948 2.83739 13.6701 2.69961 13.3126C2.51779 12.8199 2.42154 12.2997 2.415 11.7745C2.37407 10.9012 2.36627 10.638 2.36627 8.42743C2.36627 6.21684 2.36627 5.95173 2.415 5.07841C2.42154 4.55325 2.51779 4.03307 2.69961 3.54035C2.83251 3.18032 3.04433 2.85461 3.31952 2.5871C3.58773 2.31278 3.91324 2.10109 4.27277 1.96719C4.76537 1.78492 5.2856 1.68866 5.8108 1.68259C6.68412 1.6436 6.94535 1.63386 9.15789 1.63386ZM9.15789 0.142578C6.90831 0.142578 6.6237 0.142578 5.74258 0.191313C5.05482 0.207004 4.37467 0.338819 3.73083 0.581188C3.18027 0.793706 2.68025 1.11908 2.26295 1.53639C1.84564 1.95369 1.52027 2.45371 1.30775 3.00427C1.06443 3.64716 0.932579 4.32683 0.917873 5.01407C0.876936 5.89909 0.867188 6.1837 0.867188 8.43133C0.867188 10.679 0.876936 10.9655 0.917873 11.8466C0.932579 12.5339 1.06443 13.2136 1.30775 13.8564C1.52027 14.407 1.84564 14.907 2.26295 15.3243C2.68025 15.7416 3.18027 16.067 3.73083 16.2795C4.3744 16.5228 5.05471 16.6547 5.74258 16.6694C6.62565 16.7103 6.91221 16.7201 9.15789 16.7201C11.4036 16.7201 11.6921 16.7201 12.5732 16.6694C13.2611 16.6549 13.9414 16.5231 14.5849 16.2795C15.1355 16.067 15.6355 15.7416 16.0528 15.3243C16.4701 14.907 16.7955 14.407 17.008 13.8564C17.2504 13.2133 17.3823 12.5338 17.3979 11.8466C17.4369 10.9636 17.4466 10.677 17.4466 8.43133C17.4466 6.18565 17.4466 5.89714 17.3979 5.01407C17.3823 4.32694 17.2504 3.64742 17.008 3.00427C16.7955 2.45371 16.4701 1.95369 16.0528 1.53639C15.6355 1.11908 15.1355 0.793706 14.5849 0.581188C13.9412 0.338602 13.261 0.20678 12.5732 0.191313C11.6901 0.150376 11.4036 0.142578 9.15789 0.142578Z" fill="#000508"/>
<path d="M9.15783 4.17188C8.31618 4.17188 7.49343 4.42144 6.79362 4.88904C6.09381 5.35664 5.54835 6.02126 5.22627 6.79885C4.90418 7.57644 4.81992 8.43207 4.98412 9.25755C5.14832 10.083 5.55361 10.8413 6.14875 11.4364C6.74389 12.0316 7.50215 12.4369 8.32764 12.6011C9.15312 12.7653 10.0088 12.681 10.7863 12.3589C11.5639 12.0368 12.2285 11.4914 12.6961 10.7916C13.1637 10.0918 13.4133 9.26901 13.4133 8.42736C13.4136 7.86845 13.3037 7.31498 13.0899 6.79856C12.8762 6.28215 12.5627 5.81291 12.1675 5.4177C11.7723 5.02249 11.3031 4.70906 10.7867 4.49529C10.2702 4.28152 9.71675 4.17162 9.15783 4.17188ZM9.15783 11.1896C8.61143 11.1896 8.0773 11.0276 7.62301 10.724C7.16872 10.4204 6.81467 9.98883 6.60565 9.48397C6.39664 8.97912 6.34205 8.42364 6.44879 7.88776C6.55553 7.35188 6.81881 6.85969 7.20532 6.47346C7.59182 6.08723 8.08418 5.82429 8.62014 5.71793C9.15609 5.61157 9.71156 5.66655 10.2163 5.87591C10.721 6.08528 11.1522 6.43964 11.4555 6.89415C11.7588 7.34866 11.9205 7.8829 11.9201 8.42931C11.9191 9.16123 11.6276 9.86283 11.1097 10.38C10.5918 10.8972 9.88976 11.1877 9.15783 11.1877V11.1896Z" fill="#000508"/>
<path d="M13.5801 4.99666C14.1292 4.99666 14.5743 4.55155 14.5743 4.00248C14.5743 3.45341 14.1292 3.0083 13.5801 3.0083C13.031 3.0083 12.5859 3.45341 12.5859 4.00248C12.5859 4.55155 13.031 4.99666 13.5801 4.99666Z" fill="#000508"/>
</svg>
