<svg width="18" height="15" viewBox="0 0 18 15" fill="none" xmlns="http://www.w3.org/2000/svg">
<path d="M5.49946 14.0049C11.9324 14.0049 15.4413 8.68117 15.4413 4.06309C15.4413 3.91299 15.4413 3.7629 15.4413 3.6128C16.1248 3.11785 16.7149 2.50531 17.184 1.80377C16.5462 2.08506 15.8702 2.2703 15.1781 2.35349C15.9076 1.91634 16.4535 1.22916 16.7142 0.419719C16.0289 0.827608 15.2785 1.11445 14.4958 1.26769C13.9696 0.706146 13.2726 0.333997 12.5132 0.209004C11.7538 0.084012 10.9744 0.213169 10.2959 0.576416C9.6174 0.939663 9.07774 1.51668 8.7607 2.21797C8.44365 2.91925 8.36695 3.70558 8.54246 4.45492C7.15125 4.3869 5.78996 4.02662 4.54724 3.39754C3.30452 2.76845 2.20823 1.88467 1.32977 0.80374C0.882443 1.57293 0.745308 2.48377 0.946341 3.35057C1.14737 4.21736 1.67142 4.97485 2.41166 5.46861C1.85675 5.45142 1.31401 5.30167 0.828764 5.03193V5.07678C0.828992 5.88348 1.10825 6.66524 1.61918 7.28951C2.1301 7.91378 2.84124 8.34211 3.63197 8.50183C3.11708 8.64176 2.57706 8.66244 2.05298 8.56227C2.27763 9.25591 2.71278 9.86232 3.29794 10.2973C3.88311 10.7322 4.58923 10.9741 5.31818 10.9892C4.08021 11.9599 2.55201 12.4865 0.97887 12.4844C0.700032 12.485 0.421407 12.4687 0.144531 12.4357C1.74305 13.4582 3.60188 13.9996 5.49946 13.9952" fill="#000508"/>
</svg>
