<svg width="17" height="18" viewBox="0 0 17 18" fill="none" xmlns="http://www.w3.org/2000/svg">
<path fill-rule="evenodd" clip-rule="evenodd" d="M14.4881 3.25943C13.0562 1.82897 11.1535 0.967341 9.13386 0.834821C7.11424 0.702301 5.11525 1.30791 3.50875 2.539C1.90225 3.7701 0.797636 5.54285 0.400407 7.52745C0.00317879 9.51205 0.340374 11.5734 1.34928 13.328L0.166016 17.6517L4.59109 16.4821C5.81505 17.148 7.18613 17.4971 8.57951 17.4977C10.2303 17.4978 11.8441 17.0085 13.2168 16.0915C14.5894 15.1746 15.6594 13.8712 16.2914 12.3462C16.9234 10.8211 17.0891 9.14297 16.7674 7.52383C16.4457 5.90469 15.6511 4.4173 14.4842 3.2497L14.4881 3.25943ZM8.58341 16.098C7.34062 16.0949 6.12144 15.7583 5.05309 15.1233L4.79966 14.9733L2.17386 15.6614L2.87563 13.1018L2.70994 12.8387C1.89269 11.5356 1.53164 9.99795 1.68352 8.46735C1.83539 6.93675 2.4916 5.49999 3.54899 4.38296C4.60637 3.26593 6.00496 2.53196 7.52494 2.2964C9.04491 2.06085 10.6001 2.33708 11.946 3.08167C13.2919 3.82626 14.3521 4.99698 14.9602 6.40982C15.5682 7.82266 15.6895 9.39751 15.305 10.8868C14.9205 12.3761 14.0519 13.6954 12.8359 14.6372C11.6199 15.5791 10.1254 16.0903 8.58731 16.0902L8.58341 16.098ZM12.3886 10.903C12.18 10.7977 11.1546 10.2947 10.9636 10.2245C10.7726 10.1544 10.6342 10.1193 10.4938 10.3298C10.3535 10.5404 9.95578 11.0082 9.83492 11.1466C9.71406 11.285 9.59124 11.3026 9.38265 11.1992C8.76774 10.9534 8.19992 10.6033 7.70424 10.1641C7.24487 9.74332 6.85067 9.25649 6.53461 8.71964C6.41375 8.51105 6.52096 8.398 6.62623 8.29469C6.7315 8.19137 6.83483 8.05101 6.93815 7.9282C7.02476 7.82371 7.09507 7.70672 7.14672 7.58121C7.17439 7.52353 7.18744 7.45994 7.18472 7.39603C7.182 7.33211 7.1636 7.26984 7.13114 7.21472C7.0785 7.11141 6.66133 6.08407 6.48783 5.6669C6.31434 5.24974 6.14668 5.31603 6.01802 5.31018C5.88937 5.30433 5.75681 5.31018 5.62815 5.31018C5.52256 5.31317 5.41872 5.33793 5.32313 5.38287C5.22754 5.42782 5.14225 5.49198 5.07258 5.57139C4.83671 5.79461 4.64991 6.0645 4.52406 6.36387C4.3982 6.66324 4.33604 6.98554 4.34157 7.31024C4.34157 8.33561 5.08818 9.32786 5.19344 9.46626C5.29871 9.60467 6.66328 11.7119 8.75691 12.6145C9.14514 12.7824 9.54208 12.9295 9.94602 13.055C10.3716 13.1843 10.8215 13.2123 11.2599 13.1369C11.6498 13.0765 12.4939 12.6321 12.6674 12.1467C12.8409 11.6613 12.8409 11.2421 12.7882 11.1544C12.7356 11.0667 12.5972 11.0082 12.3886 10.903Z" fill="#000508"/>
</svg>
