<svg width="18" height="13" viewBox="0 0 18 13" fill="none" xmlns="http://www.w3.org/2000/svg">
<path d="M17.5646 1.93621C17.4658 1.5616 17.2693 1.21992 16.9954 0.945962C16.7214 0.672005 16.3797 0.475568 16.0051 0.376712C14.6405 0.00827984 9.14914 0.00830078 9.14914 0.00830078C9.14914 0.00830078 3.66359 0.00827984 2.29513 0.376712C1.92079 0.476118 1.57939 0.672732 1.30552 0.946605C1.03164 1.22048 0.83503 1.56187 0.735624 1.93621C0.369142 3.30078 0.369141 6.15857 0.369141 6.15857C0.369141 6.15857 0.369142 9.01441 0.735624 10.3829C0.83503 10.7572 1.03164 11.0986 1.30552 11.3725C1.57939 11.6464 1.92079 11.843 2.29513 11.9424C3.65969 12.3089 9.14914 12.3089 9.14914 12.3089C9.14914 12.3089 14.6366 12.3089 16.0051 11.9424C16.3797 11.8435 16.7214 11.6471 16.9954 11.3732C17.2693 11.0992 17.4658 10.7575 17.5646 10.3829C17.9311 9.01831 17.9311 6.15857 17.9311 6.15857C17.9311 6.15857 17.9311 3.30468 17.5646 1.93621ZM7.40446 8.79023V3.52691L11.964 6.15857L7.40446 8.79023Z" fill="#000508"/>
</svg>
