<svg width="60" height="60" viewBox="0 0 60 60" fill="none" xmlns="http://www.w3.org/2000/svg">
<path d="M57.2341 57.6563H54.6639V20.3363C54.6639 18.5992 53.2506 17.186 51.5136 17.186H45.7686C44.0316 17.186 42.6184 18.5993 42.6184 20.3363V57.6563H36.092V37.2451C36.092 35.5081 34.6788 34.0949 32.9418 34.0949H27.1968C25.4597 34.0949 24.0465 35.5082 24.0465 37.2451V57.6563H17.5201V47.0855C17.5201 45.3484 16.1068 43.9353 14.3699 43.9353H8.62477C6.8877 43.9353 5.47453 45.3485 5.47453 47.0855V57.6563H2.76562C2.1184 57.6563 1.59375 58.1809 1.59375 58.8281C1.59375 59.4754 2.1184 60 2.76562 60H57.2341C57.8814 60 58.406 59.4754 58.406 58.8281C58.406 58.1809 57.8814 57.6563 57.2341 57.6563ZM15.1761 57.6563H7.81816V47.0855C7.81816 46.6408 8.17992 46.279 8.62465 46.279H14.3696C14.8144 46.279 15.1761 46.6408 15.1761 47.0855V57.6563ZM33.7481 57.6563H26.3902V37.2451C26.3902 36.8004 26.7519 36.4387 27.1966 36.4387H32.9416C33.3862 36.4387 33.7481 36.8004 33.7481 37.2451V57.6563ZM52.3201 57.6563H44.9621V20.3363C44.9621 19.8915 45.3239 19.5298 45.7686 19.5298H51.5136C51.9584 19.5298 52.3201 19.8915 52.3201 20.3363V57.6563Z" fill="#06C270"/>
<path d="M54.6616 1.23234C54.678 0.912539 54.5655 0.587344 54.3213 0.343125C54.0771 0.0989062 53.7519 -0.0137109 53.4321 0.0028125C53.4132 0.00199219 53.3946 0 53.3754 0H46.2855C45.6383 0 45.1136 0.524648 45.1136 1.17188C45.1136 1.8191 45.6383 2.34375 46.2855 2.34375H50.6633L39.0785 13.9287L34.7097 9.55992C34.49 9.3402 34.1919 9.21668 33.8811 9.21668C33.5703 9.21668 33.2722 9.3402 33.0525 9.55992L11.9858 30.6267C11.5282 31.0843 11.5282 31.8264 11.9858 32.2841C12.2147 32.5127 12.5145 32.6271 12.8144 32.6271C13.1143 32.6271 13.4143 32.5127 13.6431 32.2839L33.8811 12.0457L38.2499 16.4145C38.7075 16.8721 39.4495 16.8721 39.9072 16.4145L52.3207 4.00113V7.96324C52.3207 8.61047 52.8453 9.13512 53.4925 9.13512C54.1398 9.13512 54.6644 8.61047 54.6644 7.96324V1.28906C54.6644 1.26996 54.6624 1.25133 54.6616 1.23234Z" fill="#06C270"/>
<path d="M8.86328 36.7161C9.51049 36.7161 10.0352 36.1914 10.0352 35.5442C10.0352 34.897 9.51049 34.3723 8.86328 34.3723C8.21607 34.3723 7.69141 34.897 7.69141 35.5442C7.69141 36.1914 8.21607 36.7161 8.86328 36.7161Z" fill="#06C270"/>
</svg>
