<?xml version="1.0" encoding="UTF-8"?>
<svg version="1.1" xmlns="http://www.w3.org/2000/svg" width="1080" height="493">
<path d="M0 0 C8.0410369 7.42150275 14.63152803 15.46074708 20.53271484 24.66552734 C20.92587891 25.27348145 21.31904297 25.88143555 21.72412109 26.5078125 C28.71569457 37.5230019 33.05066958 49.12668484 36.53271484 61.66552734 C36.72623535 62.34566895 36.91975586 63.02581055 37.11914062 63.7265625 C42.41552642 83.36922347 41.66663704 109.10279961 36.53271484 128.66552734 C36.36642578 129.3488916 36.20013672 130.03225586 36.02880859 130.73632812 C28.41141664 161.81951919 7.72182993 189.81614399 -19.46728516 206.66552734 C-42.49332856 220.6210804 -67.02446696 225.84509874 -93.7673645 225.78578186 C-95.19905137 225.78621861 -96.63073817 225.78709543 -98.06242454 225.78837103 C-101.97338436 225.79059559 -105.88431653 225.78662276 -109.79527283 225.78159297 C-114.02144872 225.77725924 -118.24762316 225.77873696 -122.47380066 225.77949524 C-129.78826387 225.78001862 -137.10271814 225.7768912 -144.41717911 225.7712574 C-154.99255564 225.76311728 -165.56792787 225.7605246 -176.14330719 225.75926941 C-193.30273459 225.75708284 -210.46215722 225.75043345 -227.62158203 225.7409668 C-244.28662085 225.73178247 -260.95165838 225.72470663 -277.61669922 225.72045898 C-278.64458546 225.72019626 -279.6724717 225.71993354 -280.731506 225.71966285 C-285.88830424 225.71835778 -291.04510247 225.71709408 -296.20190072 225.71585095 C-338.95703216 225.70549063 -381.71215841 225.68788305 -424.46728516 225.66552734 C-424.69112225 219.44017767 -424.85370392 213.21720847 -424.96166992 206.98876953 C-425.00670762 204.87409631 -425.06796099 202.75969986 -425.14624023 200.64599609 C-425.86210287 180.80771136 -425.86210287 180.80771136 -420.17431641 174.52099609 C-418.62522972 173.21189308 -417.05680033 171.92523437 -415.46728516 170.66552734 C-414.1366506 169.09353334 -412.83940771 167.49206329 -411.59228516 165.85302734 C-408.46434581 161.88390909 -405.24451767 158.01098517 -401.96728516 154.16552734 C-398.74077048 150.37670866 -395.55800803 146.56693162 -392.46728516 142.66552734 C-388.91873369 138.18620828 -385.2379164 133.83212698 -381.53369141 129.48193359 C-378.78953982 126.25128423 -376.09980706 122.9885468 -373.46728516 119.66552734 C-369.91873369 115.18620828 -366.2379164 110.83212698 -362.53369141 106.48193359 C-359.78953982 103.25128423 -357.09980706 99.9885468 -354.46728516 96.66552734 C-350.91873369 92.18620828 -347.2379164 87.83212698 -343.53369141 83.48193359 C-340.78953982 80.25128423 -338.09980706 76.9885468 -335.46728516 73.66552734 C-331.91873369 69.18620828 -328.2379164 64.83212698 -324.53369141 60.48193359 C-321.13017504 56.47502375 -317.83489115 52.39406852 -314.57275391 48.27099609 C-311.59232519 44.58278468 -308.51146759 40.98144312 -305.41064453 37.39404297 C-302.16127793 33.60072953 -299.39844719 29.76915419 -296.46728516 25.66552734 C-336.39728516 25.33552734 -376.32728516 25.00552734 -417.46728516 24.66552734 C-417.46728516 8.82552734 -417.46728516 -7.01447266 -417.46728516 -23.33447266 C-353.77728516 -23.33447266 -290.08728516 -23.33447266 -224.46728516 -23.33447266 C-224.46728516 21.85302734 -224.46728516 21.85302734 -243.71728516 44.38427734 C-246.5581807 47.74169935 -249.26901211 51.19310064 -251.96728516 54.66552734 C-256.04122657 59.90750156 -260.24749154 65.00985499 -264.55761719 70.05883789 C-267.86595216 73.93865552 -271.07640721 77.88203338 -274.24462891 81.87646484 C-277.10875343 85.47046293 -280.0055843 89.03730062 -282.90478516 92.60302734 C-283.47052246 93.29887939 -284.03625977 93.99473145 -284.61914062 94.71166992 C-288.43972921 99.40810938 -292.27148865 104.09529402 -296.10791016 108.77880859 C-300.6777793 114.37008888 -305.22610206 119.97891234 -309.77783203 125.58496094 C-313.04505957 129.6085611 -316.31393276 133.63082432 -319.58251953 137.65332031 C-322.34154919 141.04885711 -325.1001368 144.44475134 -327.85791016 147.84130859 C-333.41363682 154.6830162 -338.97464169 161.519983 -344.56494141 168.33349609 C-346.54838636 170.7649471 -348.50856387 173.21413872 -350.46728516 175.66552734 C-316.58100796 175.7342894 -282.69474821 175.78710474 -248.80841666 175.81872333 C-244.80204654 175.82247517 -240.79567656 175.82635816 -236.78930664 175.83032227 C-235.99175654 175.8311092 -235.19420644 175.83189613 -234.37248815 175.83270691 C-221.48187991 175.8457382 -208.59131207 175.86937942 -195.70072775 175.89698573 C-182.46030254 175.92510343 -169.2198984 175.94171702 -155.97944456 175.94779283 C-147.81839791 175.95189611 -139.65746548 175.96482591 -131.49645401 175.98927674 C-125.88972409 176.00521263 -120.28305266 176.00991007 -114.67630177 176.00603148 C-111.44810526 176.00412204 -108.22014752 176.00859021 -104.99197769 176.02314377 C-80.09748847 176.1298205 -57.71332681 173.56377272 -38.49853516 155.84521484 C-26.64494213 143.12539771 -19.43570736 127.73989184 -16.46728516 110.66552734 C-16.12697266 108.71646484 -16.12697266 108.71646484 -15.77978516 106.72802734 C-13.39952152 83.07415741 -19.07096889 59.94084511 -33.59228516 40.97802734 C-44.45807973 28.38983026 -59.76596963 18.88367081 -76.46728516 16.66552734 C-77.18916016 16.55724609 -77.91103516 16.44896484 -78.65478516 16.33740234 C-80.92561643 16.03777877 -83.18279876 15.82954175 -85.46728516 15.66552734 C-86.19044922 15.61138672 -86.91361328 15.55724609 -87.65869141 15.50146484 C-107.60897955 14.75881452 -125.17632366 21.98649522 -140.08837891 34.94287109 C-156.26725768 50.13673441 -163.4000197 70.77137868 -164.39257812 92.51098633 C-164.98418419 112.99483621 -159.04505713 130.47169575 -148.46728516 147.66552734 C-147.46663698 149.33180493 -146.46634919 150.99829946 -145.46728516 152.66552734 C-157.88824464 153.96716635 -170.31783231 154.98195904 -182.77978516 155.79052734 C-183.78490646 155.85696442 -183.78490646 155.85696442 -184.81033325 155.92474365 C-191.70491124 156.37761897 -198.55679177 156.788147 -205.46728516 156.66552734 C-221.5892294 127.41333985 -224.21738321 90.48587275 -215.33056641 58.51708984 C-214.16931454 54.51758533 -212.84883771 50.59444707 -211.46728516 46.66552734 C-211.11021484 45.64072266 -210.75314453 44.61591797 -210.38525391 43.56005859 C-204.906676 29.21508959 -195.74287303 16.91539318 -185.46728516 5.66552734 C-184.39414062 4.46863281 -184.39414062 4.46863281 -183.29931641 3.24755859 C-135.39279016 -47.53515684 -50.07849645 -45.54560093 0 0 Z " fill="#FEFEFE" transform="translate(653.46728515625,148.33447265625)"/>
<path d="M0 0 C17.55645384 15.37849738 28.35391731 35.17150126 30 58.5625 C30.14080148 64.22754269 30.12661862 69.89042867 30.11352539 75.55688477 C30.11324297 77.27247618 30.11340232 78.98806771 30.1139679 80.70365906 C30.11425374 85.33935259 30.10839152 89.97502003 30.10139394 94.61070752 C30.09512485 99.46336562 30.09455379 104.31602439 30.09336853 109.16868591 C30.09026568 118.34821065 30.08206642 127.52772343 30.07201904 136.70724291 C30.06082538 147.16190645 30.05533926 157.61657058 30.05032361 168.07123864 C30.03988291 189.56833391 30.02155047 211.06541279 30 232.5625 C13.17 232.5625 -3.66 232.5625 -21 232.5625 C-21.33 223.9825 -21.66 215.4025 -22 206.5625 C-24.64 209.2025 -27.28 211.8425 -30 214.5625 C-50.5543895 230.99063425 -74.20433536 237.98513303 -100.25 237.875 C-101.27380768 237.87226578 -101.27380768 237.87226578 -102.31829834 237.86947632 C-127.19807168 237.75760225 -150.03697741 231.2978859 -168.19140625 213.40234375 C-183.73765918 196.67610957 -185.63916316 178.47627914 -185.12304688 156.57910156 C-184.41751552 139.28238451 -175.49664828 124.08363603 -163 112.5625 C-142.59366413 94.7105038 -117.09589487 89.30190335 -91.0625 85.0625 C-88.77185901 84.67963177 -86.48141469 84.29558521 -84.19116211 83.91040039 C-79.62210839 83.14406468 -75.05190356 82.3852989 -70.48046875 81.63330078 C-64.57700462 80.66099762 -58.67848324 79.66165217 -52.78125 78.65234375 C-50.31186363 78.23179381 -47.84236113 77.8119369 -45.37277222 77.39257812 C-43.84572517 77.13309127 -42.31880601 76.87285061 -40.79202271 76.61181641 C-38.70707958 76.25655206 -36.62129958 75.90673103 -34.53515625 75.55859375 C-33.384104 75.36450928 -32.23305176 75.1704248 -31.04711914 74.97045898 C-28.31495978 74.60466792 -25.75097781 74.4806161 -23 74.5625 C-23.40005485 60.1005171 -25.02633727 47.0735294 -36 36.5625 C-49.50690429 25.46678084 -65.24728897 24.3052609 -82 25.5625 C-97.10156125 27.4397196 -109.96748332 35.45826047 -120 46.5625 C-122.60794399 50.09853794 -124.85748066 53.73103088 -127 57.5625 C-127.99625829 59.23140599 -128.99518092 60.89873428 -130 62.5625 C-135.27911062 60.98984187 -140.00410848 58.68966899 -144.8984375 56.2109375 C-146.15087753 55.58259506 -146.15087753 55.58259506 -147.42861938 54.94155884 C-150.07932433 53.61063564 -152.72718353 52.27415894 -155.375 50.9375 C-157.17820004 50.0308812 -158.98158354 49.1246272 -160.78515625 48.21875 C-165.19223959 46.00421816 -169.59678029 43.78470342 -174 41.5625 C-172.06917208 30.81766373 -165.12052189 21.58020765 -158 13.5625 C-157.45859375 12.95019531 -156.9171875 12.33789062 -156.359375 11.70703125 C-139.62039725 -6.04766117 -115.77971739 -16.51445018 -92 -20.4375 C-90.50146484 -20.71207031 -90.50146484 -20.71207031 -88.97265625 -20.9921875 C-57.85471169 -24.48033468 -25.13542532 -19.83451859 0 0 Z M-33.59765625 117.60058594 C-34.25196121 117.71120361 -34.90626617 117.82182129 -35.58039856 117.93579102 C-37.74175428 118.30242006 -39.9021728 118.67423617 -42.0625 119.046875 C-43.57502844 119.30635943 -45.08756106 119.56581949 -46.60009766 119.82525635 C-49.7747008 120.37084055 -52.94876074 120.91947845 -56.12255859 121.46972656 C-60.15764639 122.16865294 -64.19463114 122.85587047 -68.23222351 123.54015732 C-71.3614917 124.07262623 -74.48924653 124.61361077 -77.6166687 125.15680695 C-79.10223759 125.41340037 -80.58833414 125.66696052 -82.07498169 125.9172287 C-97.11442417 128.45537367 -114.62187321 131.67809267 -124.5625 144.390625 C-130.40483437 153.21763018 -131.1735018 162.25244843 -130 172.5625 C-127.6156409 181.27458135 -121.41995938 187.32209724 -113.8046875 191.875 C-100.44164627 198.3888839 -84.01708032 197.60802685 -69.96875 193.6328125 C-52.43985409 187.31318424 -37.12274373 175.70266648 -29 158.5625 C-24.78231757 147.68110793 -22.82838441 137.78358165 -22.9375 126.125 C-22.94201172 125.20267578 -22.94652344 124.28035156 -22.95117188 123.33007812 C-22.96286062 121.07414952 -22.97924545 118.81836033 -23 116.5625 C-26.72327939 116.5625 -29.93657844 116.9769786 -33.59765625 117.60058594 Z " fill="#FEFEFE" transform="translate(185,141.4375)"/>
<path d="M0 0 C15.7234533 13.47363442 24.47272046 32.68040785 27 53 C27.08550235 55.51933027 27.12204357 58.04060598 27.12025452 60.56138611 C27.12153615 61.65454072 27.12153615 61.65454072 27.12284368 62.76977926 C27.12448132 65.19411997 27.11900542 67.61839036 27.11352539 70.04272461 C27.11324312 71.78757729 27.11340203 73.5324301 27.1139679 75.27728271 C27.11425432 80.00193458 27.10838258 84.72656097 27.10139394 89.45120692 C27.09513466 94.39329699 27.09455456 99.33538766 27.09336853 104.27748108 C27.09026281 113.63061055 27.08205964 122.9837283 27.07201904 132.33685261 C27.06083434 142.98735484 27.05534151 153.63785764 27.05032361 164.28836429 C27.0398764 186.19225085 27.02154034 208.09612135 27 230 C10.17 230 -6.66 230 -24 230 C-24.33 221.42 -24.66 212.84 -25 204 C-27.97 206.97 -30.94 209.94 -34 213 C-53.272526 228.04841071 -76.35102803 235.39320228 -100.67773438 235.31567383 C-102.73361918 235.31252509 -104.78804286 235.33602485 -106.84375 235.36132812 C-130.22271075 235.47365643 -152.73721712 228.15922598 -170 212 C-183.8435798 197.62116755 -188.53897261 180.5720579 -188.41772461 161.0690918 C-187.94825025 142.12087136 -181.50553956 125.17596135 -167.96484375 111.7109375 C-142.77574717 88.04971785 -106.91366383 84.42928045 -74.37384033 79.09814453 C-70.5105561 78.46209952 -66.64936482 77.81383601 -62.78816986 77.16524696 C-59.05531054 76.53882964 -55.32169612 75.91702419 -51.58778381 75.29691696 C-49.811074 75.00183747 -48.03449124 74.70599185 -46.25804138 74.40935135 C-43.79054713 73.99860787 -41.3222093 73.59340507 -38.85351562 73.18994141 C-37.76580116 73.0077153 -37.76580116 73.0077153 -36.65611267 72.82180786 C-33.0676638 72.24157744 -29.63623738 71.86540023 -26 72 C-26.34676169 57.21061396 -27.80434884 44.91643098 -38.9296875 34.12890625 C-52.25390311 22.78135999 -68.37749766 22.12205093 -85 23 C-99.39239707 24.83006773 -113.01933211 32.63749342 -122.2890625 43.7421875 C-126.15493409 48.96907755 -129.64093067 54.43654143 -133 60 C-138.27911062 58.42734187 -143.00410848 56.12716899 -147.8984375 53.6484375 C-149.15087753 53.02009506 -149.15087753 53.02009506 -150.42861938 52.37905884 C-153.07932433 51.04813564 -155.72718353 49.71165894 -158.375 48.375 C-160.17820004 47.4683812 -161.98158354 46.5621272 -163.78515625 45.65625 C-168.19223959 43.44171816 -172.59678029 41.22220342 -177 39 C-176.54484711 37.57340299 -176.08431759 36.14852077 -175.62158203 34.72436523 C-175.3657132 33.93070053 -175.10984436 33.13703583 -174.84622192 32.31932068 C-166.97690357 10.75113357 -145.17893489 -4.72527864 -125.18408203 -14.0390625 C-85.25858275 -31.60521107 -34.03595757 -28.55723506 0 0 Z M-36.10693359 114.94628906 C-37.96069107 115.25726532 -37.96069107 115.25726532 -39.85189819 115.57452393 C-41.20079651 115.80458699 -42.54964161 116.03496223 -43.8984375 116.265625 C-45.29406652 116.50273016 -46.68970677 116.73976926 -48.08535767 116.97674561 C-51.01615132 117.47537135 -53.94643836 117.97686747 -56.87646484 118.47998047 C-60.59094453 119.11726371 -64.30705926 119.74437729 -68.02371788 120.36880875 C-70.91268826 120.85595334 -73.80039511 121.35029859 -76.68782425 121.84648895 C-78.0546124 122.08020722 -79.42182777 122.3114438 -80.78950119 122.53992462 C-107.00446934 126.73452117 -107.00446934 126.73452117 -127.625 142.1875 C-133.01619883 150.23178091 -133.87180013 158.45863194 -133 168 C-131.3811007 176.04053319 -126.29763639 182.64041407 -119.6875 187.3125 C-107.07451271 195.11347365 -92.20387378 195.07797854 -78.015625 192.28515625 C-64.44450272 189.0049991 -53.79081392 182.89497151 -44 173 C-43.37609375 172.40960938 -42.7521875 171.81921875 -42.109375 171.2109375 C-28.8329604 157.63550455 -25.64605831 139.35572273 -25.84570312 121.16162109 C-25.88724805 118.77403415 -25.93732497 116.38711526 -26 114 C-29.56320427 114 -32.60815244 114.3555061 -36.10693359 114.94628906 Z " fill="#FEFEFE" transform="translate(1049,144)"/>
<path d="M0 0 C17.16 0 34.32 0 52 0 C52 114.51 52 229.02 52 347 C34.84 347 17.68 347 0 347 C0 232.49 0 117.98 0 0 Z " fill="#FEFEFE" transform="translate(791,27)"/>
<path d="M0 0 C17.16 0 34.32 0 52 0 C52 114.51 52 229.02 52 347 C34.84 347 17.68 347 0 347 C0 232.49 0 117.98 0 0 Z " fill="#FEFEFE" transform="translate(711,27)"/>
<path d="M0 0 C1.03769531 -0.02578125 2.07539062 -0.0515625 3.14453125 -0.078125 C6.54901636 0.28898251 8.41142285 1.3000752 11.1875 3.25 C11.5175 2.26 11.8475 1.27 12.1875 0.25 C14.8275 0.25 17.4675 0.25 20.1875 0.25 C19.58381398 9.42431182 18.36110407 18.42979643 16.875 27.5 C16.67243856 28.82290327 16.46996425 30.14581989 16.26757812 31.46875 C14.95244861 39.51424819 13.77387628 46.66362372 7.8125 52.625 C1.2403454 56.69347666 -5.24154402 56.91557855 -12.8125 56.25 C-17.57342543 54.63468601 -20.03085343 52.42246985 -22.8125 48.25 C-22.8125 47.59 -22.8125 46.93 -22.8125 46.25 C-19.44152617 44.75178941 -17.60807881 44.25 -13.8125 44.25 C-13.235 44.91 -12.6575 45.57 -12.0625 46.25 C-9.8176586 48.63326465 -9.8176586 48.63326465 -5.875 48.6875 C-2.08889437 48.44778382 0.38227449 47.97271888 3.1875 45.25 C4.18972632 42.29054636 4.75347565 39.33999427 5.1875 36.25 C4.1975 36.91 3.2075 37.57 2.1875 38.25 C-2.08409051 40.6748827 -4.9363087 40.79179903 -9.8125 40.25 C-13.47466633 38.98232704 -15.45400627 37.60849373 -18.1875 34.875 C-21.32632959 27.87299554 -20.7767825 20.06982479 -18.3125 12.875 C-14.76286397 5.04792487 -8.52164638 0.12609095 0 0 Z M-7.8125 11.25 C-10.7617445 15.88452707 -11.55547759 19.85252949 -11.8125 25.25 C-11.047295 28.69342252 -10.27146092 29.86753257 -7.5625 32.125 C-4.06936242 33.55401083 -2.40000685 33.37109589 1.1875 32.25 C5.84432053 29.43424805 7.55856366 26.39400951 9.1875 21.25 C9.74490459 17.23363271 9.56066126 14.04720815 7.8125 10.3125 C6.34828274 8.15297594 6.34828274 8.15297594 4.1875 7.25 C-1.30583156 6.73176117 -3.97785569 7.2023199 -7.8125 11.25 Z " fill="#FEFEFE" transform="translate(788.8125,425.75)"/>
<path d="M0 0 C3.6230245 3.72366407 5.25 8.13043655 5.25 13.3125 C2.28 13.3125 -0.69 13.3125 -3.75 13.3125 C-4.3275 12.19875 -4.905 11.085 -5.5 9.9375 C-7.10502102 6.84210232 -8.43376051 5.49470603 -11.75 4.3125 C-16.94651283 4.11728217 -21.65167132 5.01106856 -25.75 8.3125 C-31.33314145 13.89564145 -33.81873412 20.09035072 -34.125 28 C-33.96214148 32.05730136 -33.092796 34.91948511 -30.75 38.3125 C-27.30541868 41.26499827 -24.26194122 41.79359632 -19.73828125 41.59765625 C-15.24634289 40.95342933 -12.46870848 39.08948214 -9.4375 35.8125 C-7.61410131 33.35256657 -7.61410131 33.35256657 -6.75 30.3125 C-10.71 29.9825 -14.67 29.6525 -18.75 29.3125 C-18.42 27.0025 -18.09 24.6925 -17.75 22.3125 C-10.49 22.3125 -3.23 22.3125 4.25 22.3125 C3.1197907 31.12813256 1.12434351 38.64627452 -5.48828125 44.9765625 C-12.6384117 50.39861264 -19.98241927 51.04411508 -28.75 50.3125 C-33.95594594 49.25788848 -37.31867981 46.28063928 -40.52734375 42.19921875 C-44.45979091 36.13093767 -44.43747304 29.29232441 -43.25 22.41796875 C-40.93971757 11.98231801 -36.71102189 4.41568248 -27.75 -1.6875 C-17.97381228 -6.58427609 -9.2035069 -5.6476065 0 0 Z " fill="#FEFEFE" transform="translate(916.75,416.6875)"/>
<path d="M0 0 C2.70560976 1.85120668 3.80159197 3.02813694 4.4609375 6.2578125 C4.72069763 8.49736609 4.86760722 10.74932282 5 13 C2.03 13 -0.94 13 -4 13 C-4.268125 12.21625 -4.53625 11.4325 -4.8125 10.625 C-5.84814432 7.71885077 -5.84814432 7.71885077 -9 6 C-14.41454674 5.563343 -17.53468924 5.61718881 -22 9 C-23.35618499 10.12534105 -23.35618499 10.12534105 -23.0625 13.0625 C-23.041875 14.031875 -23.02125 15.00125 -23 16 C-18.12915135 18.26103592 -13.29104653 20.25689664 -8.1875 21.9375 C-3.82928999 23.51011284 -1.19396126 24.71180299 1 29 C2.38321929 33.88737481 2.0965275 37.48390793 0.14453125 42.07421875 C-3.14106792 47.60254773 -7.90160993 50.37326745 -14 52 C-17.4375 52.30078125 -17.4375 52.30078125 -21 52.3125 C-22.175625 52.32925781 -23.35125 52.34601563 -24.5625 52.36328125 C-29.46893747 51.84476002 -32.74721655 50.18506543 -36.3125 46.8125 C-38.54068642 43.09885596 -38.70844314 40.30046371 -39 36 C-36.03 36 -33.06 36 -30 36 C-29.67 36.94875 -29.34 37.8975 -29 38.875 C-26.94126711 42.09177014 -26.66020323 42.50866185 -23.25 43.5 C-19.09182212 44.2734364 -15.96705621 43.4779229 -12 42 C-10.515 41.505 -10.515 41.505 -9 41 C-8.67 38.36 -8.34 35.72 -8 33 C-12.53163223 29.98472163 -17.29219167 28.52699759 -22.47265625 27.0703125 C-27.15147102 25.63358554 -29.97903438 23.86044 -33 20 C-34.21709679 15.29792421 -33.58067768 10.44328879 -31.375 6.125 C-23.82639786 -3.80737123 -10.65373993 -5.84911212 0 0 Z " fill="#FEFEFE" transform="translate(609,415)"/>
<path d="M0 0 C2.64 0 5.28 0 8 0 C8.33 1.32 8.66 2.64 9 4 C9.86625 3.01 9.86625 3.01 10.75 2 C15.66936169 -1.0272995 20.36924917 -0.89147205 26 0 C29.96927392 1.92012677 32.39008679 4.93209431 34 9 C35.1432252 18.81046745 33.64589928 27.48757473 27.625 35.4375 C22.49330124 40.44701545 18.31720828 41.33325798 11.3671875 41.30078125 C8.81636943 40.9766674 7.17028602 40.36486876 5 39 C4.67 38.34 4.34 37.68 4 37 C2.15730278 42.92295536 1.0388092 48.8887076 0 55 C-2.97 55 -5.94 55 -9 55 C-6.5842388 36.5639277 -3.30174009 18.29333823 0 0 Z M7 13 C4.58163079 17.73159192 4.40380967 22.77852666 5 28 C5.84836524 31.05649286 5.84836524 31.05649286 8 33 C11.81272616 34.12969664 13.99300806 34.42153151 17.6875 32.875 C22.87250206 28.67094428 24.72344988 24.93720515 25.81640625 18.4375 C26.12722654 14.31086471 24.97980811 11.54706544 22.8125 8.125 C16.44521876 4.1728944 11.15693024 8.11279823 7 13 Z " fill="#FEFEFE" transform="translate(1043,426)"/>
<path d="M0 0 C3.18236961 2.30237523 4.54649811 4.03696476 6.24609375 7.625 C7.1965888 17.7240099 7.1965888 17.7240099 5.24609375 21.625 C-3.99390625 21.625 -13.23390625 21.625 -22.75390625 21.625 C-22.43505241 28.11830183 -22.43505241 28.11830183 -20.19140625 30.5625 C-16.67094439 32.0970603 -13.47599974 32.42109504 -9.75390625 31.625 C-7.85258964 30.40528746 -6.17438186 29.03732136 -4.4296875 27.60546875 C-2.75390625 26.625 -2.75390625 26.625 0.68359375 27.3125 C1.95203125 27.9621875 1.95203125 27.9621875 3.24609375 28.625 C1.88961973 33.06436951 0.07800436 35.0406882 -3.75390625 37.625 C-9.69573656 40.4395512 -16.68194244 40.94428775 -22.984375 38.90234375 C-26.88030915 36.85054047 -28.87595966 34.52324481 -30.75390625 30.625 C-31.9162863 21.08664607 -30.99679114 13.30916707 -25.50390625 5.375 C-18.65638077 -1.47252548 -9.25999906 -4.62343216 0 0 Z M-19.75390625 10.625 C-20.08390625 11.945 -20.41390625 13.265 -20.75390625 14.625 C-14.48390625 14.625 -8.21390625 14.625 -1.75390625 14.625 C-2.31314304 9.15272393 -2.31314304 9.15272393 -3.81640625 6.75 C-10.21775771 3.03308625 -15.29004547 5.83451526 -19.75390625 10.625 Z " fill="#FEFEFE" transform="translate(730.75390625,427.375)"/>
<path d="M0 0 C2.31 0 4.62 0 7 0 C6.67 5.28 6.34 10.56 6 16 C7.65 15.01 9.3 14.02 11 13 C15.65769391 12.24774796 20.683926 11.92388914 25.04296875 13.94921875 C28.28756167 16.4888137 29.74963814 19.17076681 31 23 C32.14595121 32.42078493 30.20260156 39.92001132 25.1875 47.875 C20.50870794 52.42011229 16.84278767 54.24912132 10.375 54.5625 C6.65306086 54.44474952 4.48157704 54.16907704 1.8125 51.5 C1.214375 50.675 0.61625 49.85 0 49 C-0.66 50.32 -1.32 51.64 -2 53 C-3.98 53 -5.96 53 -8 53 C-7.37382215 41.99202237 -5.28624369 31.16397978 -3.4375 20.3125 C-3.1044392 18.33925656 -2.77175367 16.36594974 -2.43945312 14.39257812 C-1.63063019 9.59430985 -0.81672208 4.79692979 0 0 Z M4 25 C1.08922199 31.00160414 0.25683662 36.57208502 2 43 C3.8133497 46.2301177 3.8133497 46.2301177 7 48 C10.28771327 48.50254181 12.8936455 48.18128974 16 47 C19.83886071 43.94192452 22.88400061 39.79879737 24 35 C24.43219039 30.26162177 24.59543831 26.3262035 22.625 21.9375 C20.20873357 19.05656695 19.15071618 19.01788158 15.3125 18.5625 C10.1114446 18.66652111 7.07678145 20.90844895 4 25 Z " fill="#FEFEFE" transform="translate(476,413)"/>
<path d="M0 0 C2.97 0 5.94 0 9 0 C11.475 13.86 11.475 13.86 14 28 C18.62 18.76 23.24 9.52 28 0 C31.3 0 34.6 0 38 0 C33.1942414 9.74970195 28.27588795 19.44301853 23.3117981 29.11294556 C22.65024056 30.4035939 21.99060453 31.69522914 21.33297729 32.98788452 C12.612996 50.11621219 12.612996 50.11621219 7.3125 53.9375 C2.82107103 55.37814703 -1.32473991 55.2494704 -6 55 C-5.64212875 52.35175278 -5.31760089 50.44464124 -3.75 48.25 C-2 47 -2 47 0.5 46.5625 C3.06563238 46.19130998 3.06563238 46.19130998 4.8125 44.4375 C8.54159488 36.78304209 4.68665515 26.66633668 3 18.75 C2.56894809 16.70563749 2.14024588 14.66085069 1.71606445 12.61505127 C1.33273746 10.76931905 0.94196555 8.92513762 0.55078125 7.08105469 C0 4 0 4 0 0 Z " fill="#FEFEFE" transform="translate(815,426)"/>
<path d="M0 0 C2.97 0 5.94 0 9 0 C11.475 13.86 11.475 13.86 14 28 C18.62 18.76 23.24 9.52 28 0 C31.3 0 34.6 0 38 0 C33.1942414 9.74970195 28.27588795 19.44301853 23.3117981 29.11294556 C22.65024056 30.4035939 21.99060453 31.69522914 21.33297729 32.98788452 C12.612996 50.11621219 12.612996 50.11621219 7.3125 53.9375 C2.82107103 55.37814703 -1.32473991 55.2494704 -6 55 C-5.64212875 52.35175278 -5.31760089 50.44464124 -3.75 48.25 C-2 47 -2 47 0.5 46.5625 C3.06563238 46.19130998 3.06563238 46.19130998 4.8125 44.4375 C8.54159488 36.78304209 4.68665515 26.66633668 3 18.75 C2.56894809 16.70563749 2.14024588 14.66085069 1.71606445 12.61505127 C1.33273746 10.76931905 0.94196555 8.92513762 0.55078125 7.08105469 C0 4 0 4 0 0 Z " fill="#FEFEFE" transform="translate(619,426)"/>
<path d="M0 0 C1.11246094 -0.01675781 2.22492187 -0.03351563 3.37109375 -0.05078125 C8.13648721 0.49166868 10.64879272 2.29726969 13.8125 5.8125 C17.23755671 10.70543816 17.11266049 15.54777483 16.5625 21.3125 C14.81011038 29.47171534 11.50583337 34.66100909 4.5625 39.3125 C1.21556938 41.38606616 -1.45802127 41.61018167 -5.375 41.625 C-6.39464844 41.64175781 -7.41429687 41.65851563 -8.46484375 41.67578125 C-13.65935394 41.04097251 -17.06120371 38.17112433 -20.4375 34.3125 C-23.01286348 26.58640955 -22.13207407 17.81485963 -18.77734375 10.47265625 C-14.40562972 3.42438262 -8.15514549 0.02828374 0 0 Z M-9.4375 11.3125 C-12.46576126 16.70336757 -14.29153031 22.09027915 -13.4375 28.3125 C-11.69021222 32.04053465 -11.69021222 32.04053465 -8.4375 34.3125 C-4.65372395 34.48347613 -0.88057919 34.43105899 2.1953125 32.046875 C6.18669675 27.31457511 7.86074015 23.4532877 7.9375 17.3125 C7.98003906 15.765625 7.98003906 15.765625 8.0234375 14.1875 C7.45068937 10.61510486 6.41593148 9.47295526 3.5625 7.3125 C-2.04988053 6.48103622 -5.2969853 7.44801961 -9.4375 11.3125 Z " fill="#FEFEFE" transform="translate(974.4375,425.6875)"/>
<path d="M0 0 C2.97 0 5.94 0 9 0 C8.87359131 0.7206665 8.74718262 1.44133301 8.61694336 2.18383789 C8.04608735 5.47491928 7.49167039 8.7685697 6.9375 12.0625 C6.73833984 13.19623047 6.53917969 14.32996094 6.33398438 15.49804688 C5.36939525 21.30250426 4.66968652 26.23530825 6 32 C10.18508015 32.28373425 12.96736481 32.45894897 16.8125 30.75 C20.31585279 26.34578507 20.95177121 21.44842082 22 16 C22.13680176 15.30003906 22.27360352 14.60007812 22.41455078 13.87890625 C23.31473943 9.25922337 24.17100613 4.63295865 25 0 C27.97 0 30.94 0 34 0 C33.1680711 5.37583268 32.33179826 10.75096447 31.49145508 16.12548828 C31.20607287 17.95472816 30.92188809 19.78415527 30.63891602 21.61376953 C30.23246324 24.24040829 29.82173833 26.86634824 29.41015625 29.4921875 C29.22103416 30.72350906 29.22103416 30.72350906 29.02809143 31.97970581 C28.11387171 37.77225659 28.11387171 37.77225659 27 40 C24.36 40 21.72 40 19 40 C18.67 39.01 18.34 38.02 18 37 C17.01 37.66 16.02 38.32 15 39 C10.74484511 41.42044236 7.85447632 41.54808604 3 41 C-0.58552881 39.36312815 -1.79315055 38.31027417 -4 35 C-5.65085146 23.38645196 -2.27341853 11.3163467 0 0 Z " fill="#FEFEFE" transform="translate(1001,426)"/>
<path d="M0 0 C2.64 0 5.28 0 8 0 C8.33 0.99 8.66 1.98 9 3 C9.70125 2.5153125 10.4025 2.030625 11.125 1.53125 C15.89661097 -1.01015149 20.73003304 -0.80179304 26 0 C28.97361086 2.21563162 30.36959793 3.73919585 32 7 C32.38271304 13.97840593 31.25365988 20.57493531 30.0625 27.4375 C29.88009766 28.53771484 29.69769531 29.63792969 29.50976562 30.77148438 C28.13502139 38.86497861 28.13502139 38.86497861 27 40 C24.32941149 40.14115161 21.67567762 40.04247107 19 40 C19.13277344 38.99582031 19.26554688 37.99164063 19.40234375 36.95703125 C19.9647794 32.64149063 20.48913932 28.32192017 21 24 C21.15210938 22.72898437 21.30421875 21.45796875 21.4609375 20.1484375 C21.57695313 19.00632812 21.69296875 17.86421875 21.8125 16.6875 C21.97685547 15.14642578 21.97685547 15.14642578 22.14453125 13.57421875 C22.22911331 10.9753059 22.22911331 10.9753059 20.69140625 9.171875 C18.02538126 7.32474452 16.16007199 7.55758992 13 8 C9.91980517 9.97614909 8.28516764 11.25706325 6.9609375 14.70703125 C6.76757812 15.73183594 6.57421875 16.75664062 6.375 17.8125 C6.14941406 18.946875 5.92382812 20.08125 5.69140625 21.25 C5.46324219 22.4875 5.23507812 23.725 5 25 C4.7203857 26.3964248 4.43776494 27.79225052 4.15234375 29.1875 C3.41708379 32.78824781 2.70346186 36.39288706 2 40 C-0.64 40 -3.28 40 -6 40 C-5.44694614 30.94544839 -4.09807379 22.16221117 -2.4375 13.25 C-2.20353516 11.96867187 -1.96957031 10.68734375 -1.72851562 9.3671875 C-1.1574513 6.24381526 -0.58119835 3.12149946 0 0 Z " fill="#FEFEFE" transform="translate(662,426)"/>
<path d="M0 0 C2.64 0 5.28 0 8 0 C9.65 9.24 11.3 18.48 13 28 C15.91642871 24.35446411 17.79115028 21.7758531 19.76171875 17.734375 C20.24060547 16.76242187 20.71949219 15.79046875 21.21289062 14.7890625 C21.94282227 13.28472656 21.94282227 13.28472656 22.6875 11.75 C23.66892419 9.7439842 24.65191132 7.73873204 25.63671875 5.734375 C26.06686279 4.84975586 26.49700684 3.96513672 26.94018555 3.05371094 C28 1 28 1 29 0 C31.67058851 -0.14115161 34.32432238 -0.04247107 37 0 C31.92086358 10.23541127 26.78184619 20.43611305 21.46289062 30.54931641 C20.7294933 31.9486306 20.00074473 33.35038989 19.27636719 34.75439453 C18.20274815 36.83423265 17.11473326 38.90595593 16.0234375 40.9765625 C15.54975235 41.90476303 15.54975235 41.90476303 15.0664978 42.85171509 C12.2712789 48.08982643 8.80293196 53.06568935 3 55 C1.43881572 55.06740865 -0.1250252 55.08514456 -1.6875 55.0625 C-2.89986328 55.04896484 -2.89986328 55.04896484 -4.13671875 55.03515625 C-4.75160156 55.02355469 -5.36648438 55.01195312 -6 55 C-5.34 52.69 -4.68 50.38 -4 48 C-2.9275 47.95875 -1.855 47.9175 -0.75 47.875 C3.10719323 47.31579935 3.10719323 47.31579935 5.5 44.5625 C9.20563898 35.76160741 4.75816088 24.01293366 2.9375 14.875 C2.65257132 13.42716661 2.36806298 11.97925043 2.08398438 10.53125 C1.39416131 7.01986662 0.69867425 3.50963432 0 0 Z " fill="#FEFEFE" transform="translate(515,426)"/>
<path d="M0 0 C-0.33 2.64 -0.66 5.28 -1 8 C-1.59167969 8.01417969 -2.18335938 8.02835937 -2.79296875 8.04296875 C-3.97826172 8.11451172 -3.97826172 8.11451172 -5.1875 8.1875 C-5.96480469 8.22230469 -6.74210938 8.25710938 -7.54296875 8.29296875 C-11.3303639 9.38282331 -12.65067364 10.81134836 -15 14 C-16.14284534 17.82221157 -16.70301031 21.67886008 -17.25 25.625 C-17.56620762 27.70075 -17.88385107 29.77628192 -18.203125 31.8515625 C-18.33364258 32.76760254 -18.46416016 33.68364258 -18.59863281 34.62744141 C-19 37 -19 37 -20 40 C-22.64 40 -25.28 40 -28 40 C-27.44694614 30.94544839 -26.09807379 22.16221117 -24.4375 13.25 C-24.20353516 11.96867187 -23.96957031 10.68734375 -23.72851562 9.3671875 C-23.1574513 6.24381526 -22.58119835 3.12149946 -22 0 C-19.36 0 -16.72 0 -14 0 C-13.67 0.99 -13.34 1.98 -13 3 C-12.4225 2.525625 -11.845 2.05125 -11.25 1.5625 C-7.25509406 -1.21174024 -4.66590056 -1.16647514 0 0 Z " fill="#FEFEFE" transform="translate(953,426)"/>
<path d="M0 0 C-0.33 2.64 -0.66 5.28 -1 8 C-1.59167969 8.01417969 -2.18335938 8.02835937 -2.79296875 8.04296875 C-3.97826172 8.11451172 -3.97826172 8.11451172 -5.1875 8.1875 C-5.96480469 8.22230469 -6.74210938 8.25710938 -7.54296875 8.29296875 C-11.3303639 9.38282331 -12.65067364 10.81134836 -15 14 C-16.14284534 17.82221157 -16.70301031 21.67886008 -17.25 25.625 C-17.56620762 27.70075 -17.88385107 29.77628192 -18.203125 31.8515625 C-18.33364258 32.76760254 -18.46416016 33.68364258 -18.59863281 34.62744141 C-19 37 -19 37 -20 40 C-22.64 40 -25.28 40 -28 40 C-27.44694614 30.94544839 -26.09807379 22.16221117 -24.4375 13.25 C-24.20353516 11.96867187 -23.96957031 10.68734375 -23.72851562 9.3671875 C-23.1574513 6.24381526 -22.58119835 3.12149946 -22 0 C-19.36 0 -16.72 0 -14 0 C-13.67 0.99 -13.34 1.98 -13 3 C-12.4225 2.525625 -11.845 2.05125 -11.25 1.5625 C-7.25509406 -1.21174024 -4.66590056 -1.16647514 0 0 Z " fill="#FEFEFE" transform="translate(769,426)"/>
</svg>
