<svg width="60" height="60" viewBox="0 0 60 60" fill="none" xmlns="http://www.w3.org/2000/svg">
<g clip-path="url(#clip0_1393_45)">
<path d="M5.37105 10.8833C5.08083 10.8833 4.79015 10.7762 4.5631 10.5601C4.09435 10.1143 4.07604 9.37223 4.52236 8.90348L4.55486 8.86915C5.00255 8.40177 5.74413 8.38529 6.21196 8.83253C6.67934 9.28022 6.69582 10.0218 6.24813 10.4896L6.2202 10.5194C5.98995 10.7611 5.6805 10.8833 5.37105 10.8833Z" fill="#06C270"/>
<path d="M36.4948 60C31.0533 60 25.9877 57.4654 22.7234 53.1647C20.3975 54.5732 17.7507 55.3125 15 55.3125C6.75842 55.3125 0.0535583 48.6076 0.0535583 40.3661C0.0535583 36.7323 1.34079 33.2982 3.69965 30.5823C1.30646 27.659 0 24.0161 0 20.2098C0 17.7301 0.540161 15.347 1.60538 13.1268C1.88507 12.5436 2.58499 12.2969 3.16864 12.5775C3.75229 12.8577 3.99811 13.5576 3.71841 14.1412C2.80609 16.0419 2.34375 18.0835 2.34375 20.2098C2.34375 23.7868 3.69003 27.1953 6.13403 29.8068C6.56662 30.2687 6.5538 30.9906 6.10565 31.4378C3.71429 33.82 2.39685 36.991 2.39685 40.3661C2.39731 47.3154 8.05069 52.9688 15 52.9688C17.6537 52.9688 20.192 52.1535 22.3412 50.6108C22.6003 50.4245 22.9239 50.3522 23.2375 50.4103C23.551 50.468 23.8275 50.6516 24.0033 50.918C26.7819 55.1372 31.4516 57.6562 36.4952 57.6562C43.6331 57.6562 49.8024 52.5792 51.1647 45.5836C51.2489 45.1501 51.5703 44.8004 51.9955 44.6805C55.3285 43.737 57.6562 40.6581 57.6562 37.1919C57.6562 34.5419 56.3246 32.0979 54.0944 30.6541C53.8115 30.471 53.6211 30.1753 53.5721 29.8416C53.5226 29.5084 53.6192 29.1701 53.8371 28.9128C56.2999 26.0046 57.6562 22.3022 57.6562 18.4872C57.6562 9.58557 50.4144 2.34375 41.5128 2.34375C35.9656 2.34375 30.8716 5.14114 27.887 9.82727C27.6988 10.123 27.388 10.3189 27.0396 10.361C26.6917 10.4031 26.3434 10.2873 26.0898 10.0456C23.465 7.54074 20.0212 6.1615 16.3921 6.1615C14.062 6.1615 11.7549 6.74286 9.7197 7.84378C9.15024 8.15186 8.43933 7.93991 8.13126 7.37045C7.82364 6.80099 8.03513 6.09009 8.60458 5.78247C10.9813 4.49707 13.6739 3.81775 16.3921 3.81775C20.1686 3.81775 23.774 5.09811 26.6817 7.44827C30.1662 2.76031 35.6154 0 41.5128 0C51.7067 0 60 8.2933 60 18.4872C60 22.4387 58.7288 26.2857 56.3988 29.4493C58.6739 31.3628 60 34.1743 60 37.1919C60 41.461 57.2859 45.2788 53.3176 46.7152C51.4828 54.4542 44.5175 60 36.4948 60Z" fill="#06C270"/>
<path d="M41.5122 8.67188C41.5094 8.67188 41.5062 8.67188 41.5035 8.67188C40.8571 8.66684 40.3284 8.1395 40.3321 7.49313C40.3357 6.8486 40.8681 6.32812 41.5122 6.32812H41.5167C42.1631 6.33041 42.6941 6.85593 42.6927 7.50229C42.6918 8.14865 42.1585 8.67188 41.5122 8.67188Z" fill="#06C270"/>
<path d="M52.5002 19.6591C51.8529 19.6591 51.3283 19.1341 51.3283 18.4872C51.3283 14.7491 49.1535 11.2802 45.788 9.64874C45.2057 9.36676 44.9622 8.66547 45.2446 8.08319C45.5266 7.50092 46.2279 7.25784 46.8102 7.53983C48.8358 8.52173 50.5483 10.0447 51.7632 11.9444C53.0119 13.8968 53.672 16.1595 53.672 18.4872C53.672 19.1341 53.1474 19.6591 52.5002 19.6591Z" fill="#06C270"/>
<path d="M14.9992 48.9843C10.2467 48.9843 6.38086 45.118 6.38086 40.366C6.38086 39.7187 6.90546 39.1941 7.55273 39.1941C8.20001 39.1941 8.72461 39.7187 8.72461 40.366C8.72461 43.8257 11.5394 46.6405 14.9992 46.6405C15.6465 46.6405 16.1711 47.1651 16.1711 47.8124C16.1711 48.4597 15.6465 48.9843 14.9992 48.9843Z" fill="#06C270"/>
<path d="M35.1953 35.7549C30.6721 35.7549 26.9922 32.0749 26.9922 27.5518C26.9922 23.0286 30.6721 19.3486 35.1953 19.3486C39.7189 19.3486 43.3984 23.0286 43.3984 27.5518C43.3984 32.0749 39.7189 35.7549 35.1953 35.7549ZM35.1953 21.6924C31.9649 21.6924 29.3359 24.3209 29.3359 27.5518C29.3359 30.7827 31.9649 33.4111 35.1953 33.4111C38.4262 33.4111 41.0547 30.7827 41.0547 27.5518C41.0547 24.3209 38.4262 21.6924 35.1953 21.6924Z" fill="#06C270"/>
<path d="M18.5526 35.7514C16.4524 35.7514 14.3517 34.9517 12.7523 33.3527C9.55392 30.1543 9.55392 24.95 12.7523 21.7516C15.9507 18.5532 21.155 18.5532 24.3534 21.7516C24.8112 22.2093 24.8112 22.9514 24.3534 23.4091C23.8957 23.8664 23.1536 23.8664 22.6959 23.4091C21.5894 22.3023 20.1177 21.6925 18.5526 21.6925C16.988 21.6925 15.5163 22.3023 14.4099 23.4091C12.1252 25.6934 12.1252 29.4109 14.4099 31.6951C15.5163 32.802 16.988 33.4113 18.5526 33.4113C20.1177 33.4113 21.5894 32.802 22.6959 31.6951C23.1536 31.2378 23.8957 31.2378 24.3534 31.6951C24.8112 32.1529 24.8112 32.8949 24.3534 33.3527C22.754 34.9517 20.6533 35.7514 18.5526 35.7514Z" fill="#06C270"/>
<path d="M48.4779 40.6511H44.7109C44.2047 40.6511 43.7556 40.3257 43.5977 39.8445C43.4397 39.3634 43.6091 38.8352 44.017 38.5349C45.0895 37.743 47.3055 35.6469 47.3055 34.225C47.3055 33.7746 47.1893 33.5137 46.5942 33.5137C46.2023 33.5137 45.8828 33.8327 45.8828 34.225C45.8828 34.8723 45.3582 35.3969 44.7109 35.3969C44.0641 35.3969 43.5391 34.8723 43.5391 34.225C43.5391 32.5405 44.9096 31.1699 46.5942 31.1699C48.4216 31.1699 49.6493 32.3976 49.6493 34.225C49.6493 35.7123 48.7077 37.1744 47.707 38.3074H48.4774C49.1247 38.3074 49.6493 38.832 49.6493 39.4792C49.6493 40.1265 49.1247 40.6511 48.4779 40.6511Z" fill="#06C270"/>
</g>
<defs>
<clipPath id="clip0_1393_45">
<rect width="60" height="60" fill="white"/>
</clipPath>
</defs>
</svg>
