<svg width="56" height="56" viewBox="0 0 56 56" fill="none" xmlns="http://www.w3.org/2000/svg">
<g clip-path="url(#clip0_1389_271)">
<path d="M14.0581 16.4844H37.4518C38.061 16.4844 38.5548 15.9906 38.5548 15.3814C38.5548 14.7721 38.061 14.2783 37.4518 14.2783H14.0581C13.4489 14.2783 12.9551 14.7721 12.9551 15.3814C12.9551 15.9906 13.4489 16.4844 14.0581 16.4844Z" fill="black"/>
<path d="M37.452 19.7856H29.8296C29.2204 19.7856 28.7266 20.2795 28.7266 20.8887C28.7266 21.4979 29.2204 21.9917 29.8296 21.9917H37.452C38.0612 21.9917 38.555 21.4979 38.555 20.8887C38.555 20.2795 38.0612 19.7856 37.452 19.7856Z" fill="black"/>
<path d="M14.0581 21.9917H22.1234C22.7327 21.9917 23.2265 21.4979 23.2265 20.8887C23.2265 20.2795 22.7327 19.7856 22.1234 19.7856H14.0581C13.4489 19.7856 12.9551 20.2795 12.9551 20.8887C12.9551 21.4979 13.4489 21.9917 14.0581 21.9917Z" fill="black"/>
<path d="M14.0581 27.4991H37.4518C38.061 27.4991 38.5548 27.0052 38.5548 26.396C38.5548 25.7868 38.061 25.293 37.4518 25.293H14.0581C13.4489 25.293 12.9551 25.7868 12.9551 26.396C12.9551 27.0052 13.4489 27.4991 14.0581 27.4991Z" fill="black"/>
<path d="M14.0581 33.0064H16.2603C16.8695 33.0064 17.3633 32.5126 17.3633 31.9033C17.3633 31.2941 16.8695 30.8003 16.2603 30.8003H14.0581C13.4489 30.8003 12.9551 31.2941 12.9551 31.9033C12.9551 32.5126 13.4489 33.0064 14.0581 33.0064Z" fill="black"/>
<path d="M30.805 30.8003H21.7671C21.1579 30.8003 20.6641 31.2941 20.6641 31.9033C20.6641 32.5126 21.1579 33.0064 21.7671 33.0064H30.805C31.4142 33.0064 31.908 32.5126 31.908 31.9033C31.908 31.2941 31.4142 30.8003 30.805 30.8003Z" fill="black"/>
<path d="M28.628 37.4112C28.628 36.8019 28.1341 36.3081 27.5249 36.3081H14.0581C13.4489 36.3081 12.9551 36.8019 12.9551 37.4112C12.9551 38.0204 13.4489 38.5142 14.0581 38.5142H27.525C28.1341 38.5141 28.628 38.0203 28.628 37.4112Z" fill="black"/>
<path d="M14.0581 10.9742H27.5435C28.1527 10.9742 28.6466 10.4803 28.6466 9.87111C28.6466 9.26189 28.1527 8.76807 27.5435 8.76807H14.0581C13.4489 8.76807 12.9551 9.26189 12.9551 9.87111C12.9551 10.4803 13.4489 10.9742 14.0581 10.9742Z" fill="black"/>
<path d="M53.4516 34.5151L45.2753 30.1019V10.6488C45.2753 10.609 45.273 10.5699 45.2689 10.5312C45.268 10.523 45.2663 10.5149 45.2652 10.5067C45.2612 10.476 45.2566 10.4455 45.2502 10.4158C45.2482 10.4066 45.2454 10.3976 45.2432 10.3884C45.2363 10.36 45.2289 10.3319 45.2198 10.3043C45.2165 10.2942 45.2125 10.2843 45.2088 10.2744C45.1995 10.2485 45.1897 10.2231 45.1785 10.1982C45.1735 10.1871 45.1679 10.1761 45.1626 10.1651C45.1514 10.1422 45.1397 10.1198 45.127 10.0979C45.1201 10.086 45.1129 10.0743 45.1056 10.0626C45.0929 10.0425 45.0797 10.0228 45.0658 10.0035C45.0571 9.99152 45.0484 9.9797 45.0392 9.968C45.0248 9.94973 45.0097 9.93213 44.9941 9.91473C44.9843 9.90369 44.9747 9.89253 44.9643 9.88192C44.9467 9.86377 44.9281 9.84659 44.9093 9.82964C44.9018 9.82297 44.8953 9.81553 44.8876 9.80908L33.6849 0.263484C33.6826 0.261625 33.6802 0.259984 33.6779 0.258016C33.6662 0.248172 33.6539 0.239312 33.6418 0.229906C33.6271 0.218641 33.6126 0.207266 33.5974 0.196766C33.5836 0.187141 33.5693 0.178391 33.555 0.169422C33.5408 0.160563 33.5267 0.151594 33.5121 0.143391C33.4964 0.134531 33.4806 0.126438 33.4645 0.118344C33.4505 0.111344 33.4365 0.104344 33.4222 0.098C33.4053 0.0903438 33.3883 0.0833438 33.3709 0.0765625C33.3564 0.0709844 33.342 0.065625 33.3273 0.0607031C33.3099 0.0546875 33.2924 0.049 33.2746 0.0438594C33.2588 0.0392656 33.2427 0.0354375 33.2266 0.0315C33.2098 0.0274531 33.1929 0.0232969 33.1757 0.0200156C33.1562 0.0162969 33.1365 0.0136719 33.1167 0.0110469C33.1025 0.0091875 33.0885 0.00667187 33.0741 0.00535937C33.0397 0.00196875 33.0047 0 32.9695 0H9.9878C7.9193 0 6.23656 1.68492 6.23656 3.75605V5.98467H4.30117C2.23103 5.98467 0.546875 7.66959 0.546875 9.74072V52.2441C0.546875 54.3151 2.23103 56 4.30117 56H44.1722C44.2159 56 44.2589 55.9967 44.3014 55.9918C44.7904 55.9603 45.2909 55.7543 45.9338 55.3695C48.56 53.7996 50.8631 51.1902 52.7792 47.6141C54.5575 44.2968 55.482 40.8325 55.4529 37.5962C55.4355 35.675 54.7547 35.2184 53.4516 34.5151ZM34.0725 3.49202L41.1771 9.5457H36.2247C35.038 9.5457 34.0725 8.58069 34.0725 7.39452V3.49202ZM2.75297 52.244V9.74072C2.75297 8.88606 3.4475 8.19077 4.30117 8.19077H6.23656V46.2562C6.23656 48.3272 7.9193 50.0123 9.9878 50.0123H15.4607C16.0699 50.0123 16.5638 49.5184 16.5638 48.9092C16.5638 48.3 16.0699 47.8062 15.4607 47.8062H9.9878C9.13577 47.8062 8.44266 47.1109 8.44266 46.2562V3.75605C8.44266 2.90139 9.13577 2.20609 9.9878 2.20609H31.8664V7.39452C31.8664 9.79716 33.8216 11.7518 36.2247 11.7518H43.0691V30.1019L34.9274 34.4964L34.8949 34.5139C33.5884 35.2172 32.9059 35.6737 32.8885 37.5961C32.8594 40.8325 33.784 44.2967 35.5621 47.6139C35.597 47.6791 35.633 47.7415 35.6682 47.8061H25.2758C24.6666 47.8061 24.1727 48.2999 24.1727 48.9091C24.1727 49.5183 24.6666 50.0122 25.2758 50.0122H37.0036C38.0085 51.5017 39.099 52.764 40.2675 53.7938H4.30117C3.4475 53.7939 2.75297 53.0987 2.75297 52.244ZM50.8348 46.5721C49.1099 49.7912 47.0803 52.1141 44.8012 53.4764C44.3574 53.7421 44.2142 53.7894 44.1735 53.794C44.1732 53.794 44.173 53.794 44.1726 53.794C44.1265 53.7893 43.983 53.7416 43.54 53.4764C43.5399 53.4763 43.5397 53.4762 43.5395 53.4761C41.2932 52.1332 39.207 49.7458 37.5064 46.5719C35.9027 43.58 35.0686 40.4831 35.0945 37.616C35.0998 37.0274 35.1685 36.9297 35.1715 36.9259C35.2423 36.8322 35.6133 36.6325 35.9406 36.4564L44.1723 32.0133L52.3702 36.4382L52.4038 36.4563C52.7297 36.6323 53.0993 36.8317 53.1697 36.9251C53.1727 36.929 53.2416 37.0269 53.2468 37.616C53.2727 40.4832 52.4386 43.58 50.8348 46.5721Z" fill="black"/>
<path d="M20.3699 47.8062H20.3637C19.7544 47.8062 19.2637 48.3 19.2637 48.9092C19.2637 49.5184 19.7606 50.0122 20.3698 50.0122C20.979 50.0122 21.4728 49.5184 21.4728 48.9092C21.4728 48.3 20.9791 47.8062 20.3699 47.8062Z" fill="black"/>
<path d="M46.7889 39.2571L42.9477 43.2018L41.5197 41.8626C41.0753 41.446 40.3773 41.4684 39.9606 41.9127C39.5438 42.3571 39.5663 43.0551 40.0106 43.4719L42.2282 45.5514C42.4408 45.7508 42.7119 45.8499 42.9826 45.8499C43.27 45.8499 43.557 45.7381 43.773 45.5164L48.3694 40.7962C48.7944 40.3598 48.7851 39.6615 48.3487 39.2364C47.9121 38.8115 47.2138 38.8208 46.7889 39.2571Z" fill="black"/>
</g>
<defs>
<clipPath id="clip0_1389_271">
<rect width="56" height="56" fill="white"/>
</clipPath>
</defs>
</svg>
