<svg width="56" height="56" viewBox="0 0 56 56" fill="none" xmlns="http://www.w3.org/2000/svg">
<path d="M27.9991 13.125C26.9491 13.125 26.0164 13.5992 25.3741 14.3342L20.9195 12.1065C20.9703 11.8703 20.9991 11.6261 20.9991 11.375C20.9991 9.44475 19.4294 7.875 17.4991 7.875C15.5689 7.875 13.9991 9.44475 13.9991 11.375C13.9991 12.1608 14.2686 12.8791 14.7079 13.4636L8.42887 21.3124C7.99137 21.1155 7.51013 21 7 21C5.06975 21 3.5 22.5697 3.5 24.5C3.5 26.4303 5.06975 28 7 28C8.93025 28 10.5 26.4303 10.5 24.5C10.5 23.7143 10.2305 22.9959 9.79125 22.4114L16.0703 14.5626C16.5078 14.7595 16.9899 14.875 17.5 14.875C18.55 14.875 19.4827 14.4008 20.125 13.6658L24.5796 15.8935C24.5289 16.1297 24.5 16.3739 24.5 16.625C24.5 18.5553 26.0697 20.125 28 20.125C29.9303 20.125 31.5 18.5553 31.5 16.625C31.5 15.8813 31.2629 15.1944 30.8656 14.6265L36.9679 7.50663C37.4325 7.735 37.9479 7.875 38.4991 7.875C39.823 7.875 40.9631 7.12775 41.5573 6.04188L45.5017 7.028C45.5166 8.94512 47.0785 10.5 48.9991 10.5C50.9198 10.5 52.4991 8.93025 52.4991 7C52.4991 5.06975 50.9294 3.5 48.9991 3.5C47.6761 3.5 46.5351 4.24725 45.941 5.33312L41.9965 4.347C41.9808 2.42987 40.4198 0.875 38.4991 0.875C36.5785 0.875 34.9991 2.44475 34.9991 4.375C34.9991 5.11875 35.2362 5.8065 35.6335 6.3735L29.5312 13.4934C29.0666 13.265 28.5513 13.125 27.9991 13.125ZM6.99913 26.25C6.034 26.25 5.24913 25.4651 5.24913 24.5C5.24913 23.5349 6.034 22.75 6.99913 22.75C7.96425 22.75 8.74913 23.5349 8.74913 24.5C8.74913 25.4651 7.96425 26.25 6.99913 26.25ZM17.4991 13.125C16.534 13.125 15.7491 12.3401 15.7491 11.375C15.7491 10.4099 16.534 9.625 17.4991 9.625C18.4643 9.625 19.2491 10.4099 19.2491 11.375C19.2491 12.3401 18.4643 13.125 17.4991 13.125ZM27.9991 18.375C27.034 18.375 26.2491 17.5901 26.2491 16.625C26.2491 15.6599 27.034 14.875 27.9991 14.875C28.9643 14.875 29.7491 15.6599 29.7491 16.625C29.7491 17.5901 28.9643 18.375 27.9991 18.375ZM48.9991 5.25C49.9642 5.25 50.7491 6.03487 50.7491 7C50.7491 7.96513 49.9642 8.75 48.9991 8.75C48.034 8.75 47.2491 7.96513 47.2491 7C47.2491 6.03487 48.034 5.25 48.9991 5.25ZM38.4991 2.625C39.4642 2.625 40.2491 3.40987 40.2491 4.375C40.2491 5.34013 39.4642 6.125 38.4991 6.125C37.534 6.125 36.7491 5.34013 36.7491 4.375C36.7491 3.40987 37.534 2.625 38.4991 2.625Z" fill="black"/>
<path d="M21 43.75C25.8247 43.75 29.75 39.8247 29.75 35C29.75 30.1753 25.8247 26.25 21 26.25C16.1753 26.25 12.25 30.1753 12.25 35C12.25 39.8247 16.1753 43.75 21 43.75ZM21 42C18.4161 42 16.1595 40.5886 14.9468 38.5H27.0524C25.8396 40.5886 23.5848 42 21 42ZM28 35C28 35.6055 27.9151 36.1891 27.7699 36.75H26.25V30.3853C27.3359 31.619 28 33.2316 28 35ZM24.5 28.9468V36.75H17.5V28.9468C18.5307 28.3483 19.7242 28 21 28C22.2758 28 23.4692 28.3483 24.5 28.9468ZM15.75 30.3853V36.75H14.2301C14.0849 36.1891 14 35.6055 14 35C14 33.2316 14.6641 31.619 15.75 30.3853Z" fill="black"/>
<path d="M4.59987 55.125C5.84762 55.125 7.00612 54.5055 7.69912 53.466L11.6559 47.5309C11.8501 47.5886 12.0487 47.6271 12.25 47.6271C12.7802 47.6271 13.3114 47.4259 13.7148 47.0216L15.0421 45.6943C16.807 46.6813 18.837 47.25 20.9991 47.25C26.537 47.25 31.2226 43.5531 32.7329 38.5H54.2491V36.75H53.3741V16.625C53.3741 16.142 52.9821 15.75 52.4991 15.75H45.4991C45.0161 15.75 44.6241 16.142 44.6241 16.625V36.75H42.8741V25.375H41.1241V36.75H35.8741V14.875H41.1241V22.75H42.8741V14C42.8741 13.517 42.4821 13.125 41.9991 13.125H34.9991C34.5161 13.125 34.1241 13.517 34.1241 14V36.75H33.1091C33.1914 36.1769 33.2491 35.5959 33.2491 35C33.2491 29.7876 29.9714 25.3382 25.3741 23.5716V20.125C25.3741 19.642 24.9821 19.25 24.4991 19.25H17.4991C17.0161 19.25 16.6241 19.642 16.6241 20.125V23.5716C13.685 24.7004 11.2954 26.9264 9.94788 29.75H3.5C3.017 29.75 2.625 30.142 2.625 30.625V36.75H1.75V38.5H9.26625C9.52437 39.3627 9.87438 40.1852 10.3057 40.957L8.97313 42.2896C8.41663 42.8461 8.25387 43.6406 8.4665 44.3459L2.534 48.3009C1.49537 48.9939 0.875 50.1524 0.875 51.4001C0.875 53.4538 2.54625 55.125 4.59987 55.125ZM46.375 17.5H51.625V36.75H46.375V17.5ZM18.375 21H23.625V23.0405C22.778 22.855 21.9013 22.75 21 22.75C20.0987 22.75 19.222 22.855 18.375 23.0405V21ZM21 24.5C26.7899 24.5 31.5 29.2101 31.5 35C31.5 40.7899 26.7899 45.5 21 45.5C15.2101 45.5 10.5 40.7899 10.5 35C10.5 29.2101 15.2101 24.5 21 24.5ZM4.375 36.75V31.5H9.26625C8.93462 32.6104 8.75 33.7838 8.75 35C8.75 35.5959 8.80687 36.1769 8.89 36.75H4.375ZM10.2104 43.5269L11.2936 42.4436C11.9472 43.2932 12.7067 44.0527 13.5564 44.7064L12.4775 45.7853C12.313 45.9497 12.1861 45.9497 12.0216 45.7853L10.2095 43.9731C10.129 43.8926 10.1176 43.799 10.1176 43.75C10.1176 43.701 10.1307 43.6074 10.2104 43.5269ZM3.50437 49.7569L9.51388 45.7511L10.2498 46.487L6.244 52.4965C5.87738 53.0469 5.26225 53.3759 4.60075 53.3759C3.51137 53.3759 2.62587 52.4904 2.62587 51.401C2.62587 50.7395 2.954 50.1253 3.50525 49.7578L3.50437 49.7569Z" fill="black"/>
<path d="M27.9991 13.125C26.9491 13.125 26.0164 13.5992 25.3741 14.3342L20.9195 12.1065C20.9703 11.8703 20.9991 11.6261 20.9991 11.375C20.9991 9.44475 19.4294 7.875 17.4991 7.875C15.5689 7.875 13.9991 9.44475 13.9991 11.375C13.9991 12.1608 14.2686 12.8791 14.7079 13.4636L8.42887 21.3124C7.99137 21.1155 7.51013 21 7 21C5.06975 21 3.5 22.5697 3.5 24.5C3.5 26.4303 5.06975 28 7 28C8.93025 28 10.5 26.4303 10.5 24.5C10.5 23.7143 10.2305 22.9959 9.79125 22.4114L16.0703 14.5626C16.5078 14.7595 16.9899 14.875 17.5 14.875C18.55 14.875 19.4827 14.4008 20.125 13.6658L24.5796 15.8935C24.5289 16.1297 24.5 16.3739 24.5 16.625C24.5 18.5553 26.0697 20.125 28 20.125C29.9303 20.125 31.5 18.5553 31.5 16.625C31.5 15.8813 31.2629 15.1944 30.8656 14.6265L36.9679 7.50663C37.4325 7.735 37.9479 7.875 38.4991 7.875C39.823 7.875 40.9631 7.12775 41.5573 6.04188L45.5017 7.028C45.5166 8.94512 47.0785 10.5 48.9991 10.5C50.9198 10.5 52.4991 8.93025 52.4991 7C52.4991 5.06975 50.9294 3.5 48.9991 3.5C47.6761 3.5 46.5351 4.24725 45.941 5.33312L41.9965 4.347C41.9808 2.42987 40.4198 0.875 38.4991 0.875C36.5785 0.875 34.9991 2.44475 34.9991 4.375C34.9991 5.11875 35.2362 5.8065 35.6335 6.3735L29.5312 13.4934C29.0666 13.265 28.5513 13.125 27.9991 13.125ZM6.99913 26.25C6.034 26.25 5.24913 25.4651 5.24913 24.5C5.24913 23.5349 6.034 22.75 6.99913 22.75C7.96425 22.75 8.74913 23.5349 8.74913 24.5C8.74913 25.4651 7.96425 26.25 6.99913 26.25ZM17.4991 13.125C16.534 13.125 15.7491 12.3401 15.7491 11.375C15.7491 10.4099 16.534 9.625 17.4991 9.625C18.4643 9.625 19.2491 10.4099 19.2491 11.375C19.2491 12.3401 18.4643 13.125 17.4991 13.125ZM27.9991 18.375C27.034 18.375 26.2491 17.5901 26.2491 16.625C26.2491 15.6599 27.034 14.875 27.9991 14.875C28.9643 14.875 29.7491 15.6599 29.7491 16.625C29.7491 17.5901 28.9643 18.375 27.9991 18.375ZM48.9991 5.25C49.9642 5.25 50.7491 6.03487 50.7491 7C50.7491 7.96513 49.9642 8.75 48.9991 8.75C48.034 8.75 47.2491 7.96513 47.2491 7C47.2491 6.03487 48.034 5.25 48.9991 5.25ZM38.4991 2.625C39.4642 2.625 40.2491 3.40987 40.2491 4.375C40.2491 5.34013 39.4642 6.125 38.4991 6.125C37.534 6.125 36.7491 5.34013 36.7491 4.375C36.7491 3.40987 37.534 2.625 38.4991 2.625Z" fill="black"/>
<path d="M21 43.75C25.8247 43.75 29.75 39.8247 29.75 35C29.75 30.1753 25.8247 26.25 21 26.25C16.1753 26.25 12.25 30.1753 12.25 35C12.25 39.8247 16.1753 43.75 21 43.75ZM21 42C18.4161 42 16.1595 40.5886 14.9468 38.5H27.0524C25.8396 40.5886 23.5848 42 21 42ZM28 35C28 35.6055 27.9151 36.1891 27.7699 36.75H26.25V30.3853C27.3359 31.619 28 33.2316 28 35ZM24.5 28.9468V36.75H17.5V28.9468C18.5307 28.3483 19.7242 28 21 28C22.2758 28 23.4692 28.3483 24.5 28.9468ZM15.75 30.3853V36.75H14.2301C14.0849 36.1891 14 35.6055 14 35C14 33.2316 14.6641 31.619 15.75 30.3853Z" fill="black"/>
<path d="M4.59987 55.125C5.84762 55.125 7.00612 54.5055 7.69912 53.466L11.6559 47.5309C11.8501 47.5886 12.0487 47.6271 12.25 47.6271C12.7802 47.6271 13.3114 47.4259 13.7148 47.0216L15.0421 45.6943C16.807 46.6813 18.837 47.25 20.9991 47.25C26.537 47.25 31.2226 43.5531 32.7329 38.5H54.2491V36.75H53.3741V16.625C53.3741 16.142 52.9821 15.75 52.4991 15.75H45.4991C45.0161 15.75 44.6241 16.142 44.6241 16.625V36.75H42.8741V25.375H41.1241V36.75H35.8741V14.875H41.1241V22.75H42.8741V14C42.8741 13.517 42.4821 13.125 41.9991 13.125H34.9991C34.5161 13.125 34.1241 13.517 34.1241 14V36.75H33.1091C33.1914 36.1769 33.2491 35.5959 33.2491 35C33.2491 29.7876 29.9714 25.3382 25.3741 23.5716V20.125C25.3741 19.642 24.9821 19.25 24.4991 19.25H17.4991C17.0161 19.25 16.6241 19.642 16.6241 20.125V23.5716C13.685 24.7004 11.2954 26.9264 9.94788 29.75H3.5C3.017 29.75 2.625 30.142 2.625 30.625V36.75H1.75V38.5H9.26625C9.52437 39.3627 9.87438 40.1852 10.3057 40.957L8.97313 42.2896C8.41663 42.8461 8.25387 43.6406 8.4665 44.3459L2.534 48.3009C1.49537 48.9939 0.875 50.1524 0.875 51.4001C0.875 53.4538 2.54625 55.125 4.59987 55.125ZM46.375 17.5H51.625V36.75H46.375V17.5ZM18.375 21H23.625V23.0405C22.778 22.855 21.9013 22.75 21 22.75C20.0987 22.75 19.222 22.855 18.375 23.0405V21ZM21 24.5C26.7899 24.5 31.5 29.2101 31.5 35C31.5 40.7899 26.7899 45.5 21 45.5C15.2101 45.5 10.5 40.7899 10.5 35C10.5 29.2101 15.2101 24.5 21 24.5ZM4.375 36.75V31.5H9.26625C8.93462 32.6104 8.75 33.7838 8.75 35C8.75 35.5959 8.80687 36.1769 8.89 36.75H4.375ZM10.2104 43.5269L11.2936 42.4436C11.9472 43.2932 12.7067 44.0527 13.5564 44.7064L12.4775 45.7853C12.313 45.9497 12.1861 45.9497 12.0216 45.7853L10.2095 43.9731C10.129 43.8926 10.1176 43.799 10.1176 43.75C10.1176 43.701 10.1307 43.6074 10.2104 43.5269ZM3.50437 49.7569L9.51388 45.7511L10.2498 46.487L6.244 52.4965C5.87738 53.0469 5.26225 53.3759 4.60075 53.3759C3.51137 53.3759 2.62587 52.4904 2.62587 51.401C2.62587 50.7395 2.954 50.1253 3.50525 49.7578L3.50437 49.7569Z" fill="black"/>
</svg>
