<svg width="56" height="56" viewBox="0 0 56 56" fill="none" xmlns="http://www.w3.org/2000/svg">
<path d="M43.2031 26.5508H34.8906C31.8752 26.5508 29.4219 24.0975 29.4219 21.082V12.7695C29.4219 9.75406 31.8752 7.30078 34.8906 7.30078H43.2031C46.2186 7.30078 48.6719 9.75406 48.6719 12.7695V21.082C48.6719 24.0975 46.2186 26.5508 43.2031 26.5508ZM34.8906 9.48828C33.0816 9.48828 31.6094 10.9605 31.6094 12.7695V21.082C31.6094 22.8911 33.0816 24.3633 34.8906 24.3633H43.2031C45.0122 24.3633 46.4844 22.8911 46.4844 21.082V12.7695C46.4844 10.9605 45.0122 9.48828 43.2031 9.48828H34.8906Z" fill="black"/>
<path d="M43.2031 48.6992H34.8906C31.8752 48.6992 29.4219 46.2459 29.4219 43.2305V34.918C29.4219 31.9025 31.8752 29.4492 34.8906 29.4492H43.2031C46.2186 29.4492 48.6719 31.9025 48.6719 34.918V43.2305C48.6719 46.2459 46.2186 48.6992 43.2031 48.6992ZM34.8906 31.6367C33.0816 31.6367 31.6094 33.1089 31.6094 34.918V43.2305C31.6094 45.0395 33.0816 46.5117 34.8906 46.5117H43.2031C45.0122 46.5117 46.4844 45.0395 46.4844 43.2305V34.918C46.4844 33.1089 45.0122 31.6367 43.2031 31.6367H34.8906Z" fill="black"/>
<path d="M21.1094 48.6992H12.7969C9.78141 48.6992 7.32812 46.2459 7.32812 43.2305V34.918C7.32812 31.9025 9.78141 29.4492 12.7969 29.4492H21.1094C24.1248 29.4492 26.5781 31.9025 26.5781 34.918V43.2305C26.5781 46.2459 24.1248 48.6992 21.1094 48.6992ZM12.7969 31.6367C10.9878 31.6367 9.51562 33.1089 9.51562 34.918V43.2305C9.51562 45.0395 10.9878 46.5117 12.7969 46.5117H21.1094C22.9184 46.5117 24.3906 45.0395 24.3906 43.2305V34.918C24.3906 33.1089 22.9184 31.6367 21.1094 31.6367H12.7969Z" fill="black"/>
<path d="M16.9531 26.5508C11.6462 26.5508 7.32812 22.2327 7.32812 16.9258C7.32812 11.6189 11.6462 7.30078 16.9531 7.30078C22.26 7.30078 26.5781 11.6189 26.5781 16.9258C26.5781 22.2327 22.26 26.5508 16.9531 26.5508ZM16.9531 9.48828C12.8516 9.48828 9.51562 12.8242 9.51562 16.9258C9.51562 21.0273 12.8516 24.3633 16.9531 24.3633C21.0547 24.3633 24.3906 21.0273 24.3906 16.9258C24.3906 12.8242 21.0547 9.48828 16.9531 9.48828Z" fill="black"/>
</svg>
