<svg width="60" height="60" viewBox="0 0 60 60" fill="none" xmlns="http://www.w3.org/2000/svg">
<path d="M52.8944 19.0789C52.8944 15.5415 51.1435 12.8606 49.193 10.2004L41.1927 0L33.2271 10.1546L33.1926 10.2002C32.6665 10.9177 32.1555 11.6367 31.6888 12.3735L27.322 6.80602L13.72 24.1459L13.6854 24.1915C10.218 28.9207 7.10547 33.6717 7.10547 39.7832C7.10547 50.904 16.1312 59.9564 27.2421 59.9995L27.3245 60C38.4706 60 47.5384 50.931 47.5384 39.7835C47.5384 36.2061 46.471 33.0952 44.8909 30.1815C49.5364 28.6304 52.8944 24.2398 52.8944 19.0789ZM27.4006 56.4795L27.322 56.4793C18.1157 56.4793 10.6259 48.9895 10.6259 39.7833C10.6259 34.7382 13.288 30.6887 16.5075 26.2962L27.322 12.5101L29.9837 15.9034C29.673 16.8919 29.4911 17.9408 29.4911 19.0788C29.4911 25.5055 34.6994 30.7389 41.1166 30.7804L41.1852 30.7807C42.8765 33.6054 44.0181 36.4813 44.0181 39.7836C44.0181 48.9645 36.5707 56.4384 27.4006 56.4795ZM41.2381 27.26H41.1926C36.6815 27.26 33.0114 23.59 33.0114 19.0787C33.0114 16.6061 34.3118 14.6286 36.0147 12.3048L41.1927 5.70387L46.3708 12.3048C48.0736 14.6286 49.3741 16.6063 49.3741 19.0789C49.3739 23.5755 45.7285 27.2365 41.2381 27.26Z" fill="#06C270"/>
<path d="M25.6196 43.5439C24.4889 44.6639 23.1129 45.2239 21.4916 45.2239C19.8703 45.2239 18.4943 44.6639 17.3636 43.5439C16.2436 42.4133 15.6836 41.0319 15.6836 39.3999C15.6836 37.7679 16.2436 36.3919 17.3636 35.2719C18.4943 34.1413 19.8703 33.5759 21.4916 33.5759C23.1129 33.5759 24.4889 34.1413 25.6196 35.2719C26.7503 36.3919 27.3156 37.7679 27.3156 39.3999C27.3156 41.0319 26.7503 42.4133 25.6196 43.5439ZM18.9156 42.0399C19.6089 42.7226 20.4676 43.0639 21.4916 43.0639C22.5156 43.0639 23.3743 42.7226 24.0676 42.0399C24.7609 41.3466 25.1076 40.4666 25.1076 39.3999C25.1076 38.3333 24.7609 37.4533 24.0676 36.7599C23.3743 36.0666 22.5156 35.7199 21.4916 35.7199C20.4676 35.7199 19.6089 36.0666 18.9156 36.7599C18.2223 37.4533 17.8756 38.3333 17.8756 39.3999C17.8756 40.4666 18.2223 41.3466 18.9156 42.0399Z" fill="#06C270"/>
<path d="M28.8675 33.7999H31.0755V44.9999H28.8675V33.7999Z" fill="#06C270"/>
<path d="M35.3567 42.8879H39.6287V44.9999H33.1487V33.7999H35.3567V42.8879Z" fill="#06C270"/>
</svg>
