<svg width="64" height="62" viewBox="0 0 64 70" fill="none" xmlns="http://www.w3.org/2000/svg">
<path d="M31.8248 11.1725L32 11L32.5811 11.5476C37.0083 15.719 42.8614 18.0421 48.9442 18.0421C49.5273 18.0421 50 18.5148 50 19.0979V20.167C50 33.0318 44.8381 45.3587 35.6713 54.385L32 58L28.3287 54.385C19.1618 45.3587 14 33.0318 14 20.167V19.0995C14 18.5155 14.4734 18.0421 15.0574 18.0421C21.3316 18.0421 27.3542 15.5747 31.8248 11.1725Z" stroke="#146EF5" stroke-width="2"/>
<path d="M8.58839 9.79105H9.69897C17.3271 9.79105 24.6678 6.90011 30.2232 1.70811C31.2274 0.769617 32.8042 0.766745 33.8289 1.68312C39.615 6.85758 47.2036 9.79105 54.9895 9.79105H55.4218C56.9893 9.79105 58.2706 11.033 58.3088 12.5894L58.4833 19.6833C58.8521 34.685 53.1159 49.2008 42.5717 59.9482L34.8712 67.7971C33.2976 69.401 30.7024 69.401 29.1288 67.7971L21.4283 59.9482C10.8841 49.2008 5.1479 34.685 5.51675 19.6833L5.69092 12.5995C5.72933 11.0375 7.01525 9.79105 8.58839 9.79105Z" stroke="#D8D8D8" stroke-width="2"/>
</svg>
