<svg width="100" height="100" viewBox="0 0 100 100" fill="none" xmlns="http://www.w3.org/2000/svg">
<rect width="100" height="100" fill="#F5F5F5"/>
<g id="About us" clip-path="url(#clip0_0_1)">
<rect width="1440" height="7118" transform="translate(-634 -4051)" fill="white"/>
<g id="Group 2016">
<g id="fi_2755494" clip-path="url(#clip1_0_1)">
<g id="XMLID_2123_">
<g id="XMLID_197_">
<path id="XMLID_606_" d="M86.5486 66.4096C87.824 64.7418 88.5838 62.6598 88.5838 60.4029V56.9434C88.5838 51.4791 84.1383 47.0338 78.6742 47.0338C73.2102 47.0338 68.7646 51.4793 68.7646 56.9434V60.4029C68.7646 62.6584 69.5234 64.7391 70.7973 66.4062H59.7111C62.3895 63.8443 64.0625 60.24 64.0625 56.25V47.2559C64.0625 39.5018 57.7541 33.1934 50 33.1934C42.2459 33.1934 35.9375 39.5018 35.9375 47.2559V56.25C35.9375 60.24 37.6105 63.8443 40.2887 66.4062H29.2025C30.4764 64.7389 31.2352 62.6582 31.2352 60.4029V56.9434C31.2352 51.4791 26.7896 47.0338 21.3256 47.0338C15.8615 47.0338 11.416 51.4791 11.416 56.9434V60.4029C11.416 62.66 12.176 64.7418 13.4512 66.4096C6.02227 66.4811 0 72.5439 0 79.9895V87.3859C0 88.4645 0.874609 89.3391 1.95312 89.3391H17.5781V98.0469C17.5781 99.1254 18.4527 100 19.5312 100H25.0002C26.0787 100 26.9533 99.1254 26.9533 98.0469C26.9533 96.9684 26.0787 96.0937 25.0002 96.0937H21.4844V86.5781C21.4844 78.0418 28.0957 71.0254 36.466 70.3678L47.0812 96.0937H42.5771C41.4986 96.0937 40.624 96.9684 40.624 98.0469C40.624 99.1254 41.4986 100 42.5771 100H80.4688C81.5473 100 82.4219 99.1254 82.4219 98.0469V89.3391H98.0469C99.1254 89.3391 100 88.4645 100 87.3859V79.9895C100 72.5439 93.9777 66.4811 86.5486 66.4096ZM72.6709 60.4029V56.9434C72.6709 53.6332 75.3641 50.94 78.6742 50.94C81.9844 50.94 84.6775 53.6332 84.6775 56.9434V60.4029C84.6775 63.7131 81.9844 66.4062 78.6742 66.4062C75.3641 66.4062 72.6709 63.7131 72.6709 60.4029ZM50 37.0996C55.6002 37.0996 60.1562 41.6557 60.1562 47.2559V47.2754H60.1479C56.9154 47.2754 53.7764 46.3391 51.0695 44.568C50.4199 44.1426 49.5803 44.1426 48.9307 44.568C46.2238 46.3391 43.0846 47.2754 39.8523 47.2754H39.8438V47.2559C39.8438 41.6557 44.3998 37.0996 50 37.0996ZM39.8438 56.25V51.1816H39.8521C43.4275 51.1816 46.9102 50.2549 50 48.491C53.0898 50.2549 56.5725 51.1816 60.1479 51.1816H60.1562V56.25C60.1562 61.8502 55.6002 66.4062 50 66.4062C44.3998 66.4062 39.8438 61.8502 39.8438 56.25ZM15.3223 56.9434C15.3223 53.6332 18.0154 50.94 21.3256 50.94C24.6357 50.94 27.3289 53.6332 27.3289 56.9434V60.4029C27.3289 63.7131 24.6357 66.4062 21.3256 66.4062C18.0154 66.4062 15.3223 63.7131 15.3223 60.4029V56.9434ZM17.6113 85.4328H3.90625V79.9895C3.90625 74.6537 8.24746 70.3125 13.5832 70.3125H25.8344C21.1203 73.7752 17.9602 79.2342 17.6113 85.4328ZM40.6982 70.3125H48.0469V75C48.0469 76.0785 48.9215 76.9531 50 76.9531C51.0785 76.9531 51.9531 76.0785 51.9531 75V70.3125H59.3018H59.3311L50 92.9264L40.6689 70.3125H40.6982ZM78.5156 96.0937H52.9188L63.534 70.368C71.9043 71.0254 78.5156 78.0418 78.5156 86.5781V96.0937ZM96.0938 85.4328H82.3887C82.0398 79.2342 78.8797 73.7752 74.1656 70.3125H86.4168C91.7525 70.3125 96.0938 74.6537 96.0938 79.9895V85.4328Z" fill="black"/>
<path id="XMLID_619_" d="M36.5827 15.0479L41.2448 18.4197L39.4616 23.8674C38.9336 25.4805 39.4797 27.1674 40.853 28.165C42.226 29.1627 43.9993 29.1609 45.3702 28.1602L50.0001 24.7807L54.6299 28.16C55.3167 28.6611 56.104 28.9119 56.8919 28.9119C57.6766 28.9119 58.4618 28.6629 59.1471 28.165C60.5204 27.1676 61.0665 25.4805 60.5385 23.8672L58.7553 18.4197L63.4174 15.0479C64.7913 14.0543 65.3417 12.3699 64.8194 10.7568C64.2971 9.14395 62.8643 8.10176 61.1692 8.10176H55.4114L53.6512 2.65664C53.1292 1.04277 51.6963 0 50.0001 0C48.3038 0 46.871 1.04277 46.3491 2.65684L44.5889 8.10195H38.8311C37.1358 8.10195 35.703 9.14414 35.1809 10.757C34.6585 12.3699 35.2088 14.0543 36.5827 15.0479ZM46.0102 12.008C46.8575 12.008 47.6081 11.4617 47.8688 10.6557L50.0004 4.06289L52.1313 10.6557C52.392 11.4617 53.1426 12.008 53.9899 12.008L60.9542 12.0086L55.311 16.0896C54.6229 16.5875 54.3352 17.4729 54.5993 18.2801L56.7583 24.8773L51.1514 20.785C50.8084 20.5346 50.4042 20.4094 49.9999 20.4094C49.5956 20.4094 49.1913 20.5346 48.8483 20.785L43.2409 24.8771L45.4004 18.2801C45.6647 17.4729 45.377 16.5875 44.6887 16.0896L39.0458 12.0082L46.0102 12.008Z" fill="black"/>
<path id="XMLID_620_" d="M33.7891 96.0938C33.2754 96.0938 32.7715 96.3025 32.4082 96.666C32.0449 97.0295 31.8359 97.5332 31.8359 98.0469C31.8359 98.5605 32.0447 99.0645 32.4082 99.4275C32.7715 99.7908 33.2754 100 33.7891 100C34.3027 100 34.8066 99.791 35.1697 99.4275C35.5332 99.0645 35.7422 98.5605 35.7422 98.0469C35.7422 97.5332 35.5332 97.0293 35.1697 96.666C34.8066 96.3025 34.3027 96.0938 33.7891 96.0938Z" fill="black"/>
</g>
</g>
</g>
</g>
</g>
<defs>
<clipPath id="clip0_0_1">
<rect width="1440" height="7118" fill="white" transform="translate(-634 -4051)"/>
</clipPath>
<clipPath id="clip1_0_1">
<rect width="100" height="100" fill="white"/>
</clipPath>
</defs>
</svg>
