<svg width="90" height="90" viewBox="0 0 90 90" fill="none" xmlns="http://www.w3.org/2000/svg">
<path d="M84.1473 30.5994C80.9631 30.5994 78.3728 33.19 78.3728 36.374V52.3598C77.626 52.0168 76.8057 51.8363 75.9564 51.8361C74.4102 51.8361 72.96 52.4348 71.8732 53.5219L54.6475 70.7478C54.4643 70.9311 54.3613 71.1793 54.3613 71.4383V80.1994H53.7141C53.1746 80.1994 52.7375 80.6365 52.7375 81.176V88.8297C52.7375 89.3691 53.1746 89.8062 53.7141 89.8062H75.9469C76.4863 89.8062 76.9234 89.3691 76.9234 88.8297V81.176C76.9234 80.6365 76.4863 80.1994 75.9469 80.1994H75.2996V76.017L88.227 63.0896C89.3201 61.9961 89.9223 60.5475 89.9223 59.0103V36.3742C89.9219 33.19 87.3312 30.5994 84.1473 30.5994ZM74.9699 87.8533H54.6902V82.1527H74.9699V87.8533ZM87.9688 59.0105C87.9688 60.026 87.5697 60.9842 86.8455 61.7088L73.6322 74.9221C73.449 75.1053 73.3461 75.3535 73.3461 75.6125V80.1994H56.3143V71.8428L73.2541 54.9027C73.9721 54.1846 74.9316 53.7893 75.9563 53.7893C76.9809 53.7893 77.9406 54.1848 78.6588 54.9029C78.659 54.9031 78.6594 54.9033 78.6596 54.9035C80.1488 56.3936 80.1486 58.8176 78.6588 60.3072L70.8689 68.0969C70.4875 68.4781 70.4875 69.0965 70.8689 69.4777C71.0596 69.6685 71.3096 69.7639 71.5594 69.7639C71.8092 69.7639 72.0594 69.6685 72.2498 69.4777L80.0396 61.6881C82.191 59.5371 82.2852 56.0978 80.3258 53.8318V36.3738C80.3258 34.2666 82.04 32.5523 84.1471 32.5523C86.2543 32.5523 87.9686 34.2666 87.9686 36.3738V59.0105H87.9688ZM36.2865 80.1996H35.6393V71.4385C35.6393 71.1795 35.5363 70.9311 35.3531 70.748L18.1271 53.5221C17.0404 52.4352 15.5902 51.8363 14.0439 51.8363C13.1947 51.8365 12.3746 52.017 11.6277 52.3598V36.3742C11.6277 33.19 9.03711 30.5996 5.85313 30.5996C2.66914 30.5996 0.078125 33.19 0.078125 36.3742V59.0105C0.078125 60.5477 0.680273 61.9965 1.77383 63.0898L14.701 76.0172V80.1996H14.0537C13.5143 80.1996 13.0771 80.6367 13.0771 81.1762V88.8299C13.0771 89.3693 13.5143 89.8064 14.0537 89.8064H36.2867C36.8262 89.8064 37.2633 89.3693 37.2633 88.8299V81.1762C37.2631 80.6369 36.8258 80.1996 36.2865 80.1996ZM16.3678 74.9223L3.15469 61.709C2.43027 60.9844 2.03125 60.026 2.03125 59.0105V36.3742C2.03125 34.267 3.74551 32.5527 5.85273 32.5527C7.95996 32.5527 9.67422 34.267 9.67422 36.3742V53.8322C7.71484 56.0982 7.80898 59.5375 9.96035 61.6885L17.75 69.4781C17.9406 69.6689 18.1906 69.7643 18.4404 69.7643C18.6902 69.7643 18.9404 69.6689 19.1309 69.4781C19.5123 69.0969 19.5123 68.4785 19.1309 68.0973L11.3412 60.3076C9.85117 58.8176 9.85117 56.393 11.3412 54.9029C12.0594 54.185 13.0189 53.7895 14.0436 53.7895C15.0682 53.7895 16.0277 54.1848 16.7459 54.9029L33.6857 71.843V80.1996H16.6537V75.6127C16.6539 75.3537 16.5512 75.1053 16.3678 74.9223ZM35.31 87.8533H15.0301V82.1527H35.31V87.8533ZM16.9131 47.8969H39.4973C39.9088 48.4303 40.3959 48.9021 40.9426 49.2967C35.6406 51.0129 31.7947 55.9955 31.7947 61.8617C31.7947 62.4012 32.2318 62.8383 32.7713 62.8383H57.2289C57.7684 62.8383 58.2055 62.4012 58.2055 61.8617C58.2055 55.9955 54.3596 51.0131 49.0576 49.2967C49.6043 48.902 50.0912 48.4303 50.5029 47.8969H73.0873C73.6268 47.8969 74.0639 47.4598 74.0639 46.9203C74.0639 41.0541 70.218 36.0715 64.9158 34.3553C66.6654 33.0922 67.807 31.0373 67.807 28.7195C67.807 24.8883 64.69 21.7713 60.8586 21.7713C57.0273 21.7713 53.9104 24.8883 53.9104 28.7195C53.9104 31.0391 55.0539 33.0953 56.8057 34.3582C54.1945 35.2045 51.8803 36.852 50.2271 39.0902C48.9525 37.6346 47.0826 36.7127 45.0004 36.7127C42.9182 36.7127 41.0484 37.6346 39.7736 39.09C38.1205 36.8518 35.8063 35.2043 33.1951 34.3582C34.9469 33.0955 36.0904 31.0393 36.0904 28.7195C36.0904 24.8883 32.9734 21.7713 29.142 21.7713C25.3105 21.7713 22.1936 24.8883 22.1936 28.7195C22.1936 31.0373 23.3354 33.0922 25.0848 34.3553C19.7828 36.0715 15.9369 41.0541 15.9369 46.9203C15.9365 47.4598 16.3738 47.8969 16.9131 47.8969ZM56.2102 60.8852H33.7898C34.2863 55.1377 39.1227 50.6115 44.9963 50.6096H45.0002C45.0002 50.6096 45.0027 50.6096 45.0041 50.6096C50.8775 50.6115 55.7137 55.1377 56.2102 60.8852ZM55.8631 28.7195C55.8631 25.965 58.1039 23.7244 60.8582 23.7244C63.6125 23.7244 65.8535 25.9652 65.8535 28.7195C65.8535 31.4738 63.6125 33.7148 60.8582 33.7148C58.1039 33.7148 55.8631 31.474 55.8631 28.7195ZM60.8582 35.668C66.7336 35.668 71.5719 40.1949 72.0684 45.9436H51.5615C51.8111 45.2281 51.9484 44.4605 51.9484 43.6609C51.9484 42.6719 51.7395 41.7313 51.3654 40.8789C53.424 37.6529 57.0148 35.668 60.8582 35.668ZM45 38.6658C47.7545 38.6658 49.9953 40.9068 49.9953 43.6611C49.9953 46.4143 47.7564 48.6543 45.0037 48.6564C45.0025 48.6564 45.0012 48.6564 45 48.6564C44.9988 48.6564 44.9975 48.6564 44.9963 48.6564C42.2436 48.6545 40.0047 46.4143 40.0047 43.6611C40.0047 40.9068 42.2455 38.6658 45 38.6658ZM24.1463 28.7195C24.1463 25.965 26.3873 23.7244 29.1416 23.7244C31.8959 23.7244 34.1369 25.9652 34.1369 28.7195C34.1369 31.4738 31.8959 33.7148 29.1416 33.7148C26.3873 33.7148 24.1463 31.474 24.1463 28.7195ZM29.1418 35.668C32.9852 35.668 36.576 37.6527 38.6348 40.8789C38.2607 41.7314 38.0516 42.6721 38.0516 43.6611C38.0516 44.4607 38.1891 45.2281 38.4385 45.9438H17.9316C18.4283 40.1949 23.2664 35.668 29.1418 35.668ZM35.0275 16.1975C35.7217 16.1785 36.3629 16.5402 36.7174 17.1285C37.0717 17.717 37.0846 18.4561 36.7506 19.0578C36.1609 20.1205 36.4359 21.4248 37.4043 22.1592C38.3701 22.8914 39.4367 23.4797 40.5742 23.9074C40.8588 24.0145 41.1504 24.0658 41.4371 24.0658C42.2939 24.0658 43.1055 23.6074 43.5445 22.8115C43.8764 22.2094 44.5088 21.8275 45.1951 21.8146C45.2072 21.8145 45.2191 21.8143 45.2311 21.8143C45.9041 21.8143 46.5344 22.1703 46.8822 22.7498C47.5082 23.7924 48.7754 24.2057 49.8961 23.7332C50.4492 23.4998 50.9922 23.2234 51.5106 22.9111C52.0279 22.5992 52.5264 22.2482 52.9918 21.868C53.9328 21.0984 54.1596 19.7846 53.5309 18.7441C53.1752 18.1553 53.1605 17.4164 53.4926 16.8156C53.8246 16.215 54.4578 15.8344 55.1451 15.8221C56.3582 15.801 57.3494 14.9121 57.5023 13.7088C57.6557 12.5023 57.6342 11.2846 57.4383 10.0889C57.2416 8.88926 56.2147 8.0375 55.0018 8.06172C54.3182 8.08242 53.6662 7.71914 53.3119 7.13066C52.9574 6.54238 52.9447 5.80293 53.2787 5.20117C53.8686 4.13848 53.5936 2.83399 52.625 2.1C51.6596 1.36797 50.5928 0.779493 49.4547 0.351563C48.3197 -0.0749994 47.0705 0.385548 46.4848 1.44766C46.1529 2.04981 45.5203 2.43164 44.8342 2.44453C44.1482 2.4543 43.5014 2.09902 43.1471 1.50938C42.5213 0.467188 41.2539 0.0535163 40.1332 0.525782C39.5799 0.75918 39.0367 1.03574 38.5187 1.34785C38.0006 1.66016 37.5021 2.01113 37.0375 2.39102C36.0965 3.16055 35.8697 4.47441 36.4984 5.51484C36.8543 6.10371 36.8689 6.84258 36.5367 7.44336C36.2047 8.04414 35.5715 8.4248 34.8838 8.43691C33.6711 8.4584 32.6799 9.34727 32.527 10.5502C32.3736 11.7572 32.3951 12.9752 32.591 14.1701C32.7877 15.3697 33.8215 16.2221 35.0275 16.1975ZM34.4646 10.7967C34.4945 10.5611 34.6812 10.3938 34.9186 10.3896C36.3021 10.3654 37.5773 9.59844 38.2463 8.38828C38.9154 7.17793 38.8863 5.68984 38.1701 4.50469C38.0471 4.30098 38.0896 4.05352 38.2738 3.90293C38.6666 3.58184 39.0881 3.28516 39.5268 3.0207C39.965 2.75645 40.4246 2.52266 40.8922 2.3252C41.1115 2.23301 41.35 2.31074 41.4725 2.51465C42.1852 3.70156 43.4902 4.41797 44.8701 4.39727C46.2527 4.37148 47.5268 3.60274 48.1949 2.39063C48.3096 2.18301 48.5441 2.09648 48.7668 2.17969C49.7285 2.5416 50.6295 3.03828 51.4451 3.65664C51.6346 3.8002 51.6859 4.0457 51.5707 4.25391C50.8988 5.46484 50.9246 6.95352 51.6389 8.13887C52.3395 9.30176 53.6074 10.0154 54.9633 10.0154C54.9893 10.0154 55.0156 10.0152 55.0416 10.0146C55.0453 10.0145 55.0486 10.0145 55.0523 10.0145C55.2852 10.0145 55.4729 10.1736 55.5107 10.4047C55.6764 11.4145 55.6943 12.4434 55.5648 13.4625C55.535 13.698 55.3484 13.8654 55.1109 13.8695C53.7271 13.8939 52.4522 14.6609 51.7832 15.8709C51.1141 17.0814 51.1434 18.5695 51.8594 19.7545C51.9824 19.9582 51.9398 20.2057 51.7559 20.3561C51.3623 20.6775 50.9406 20.9746 50.5027 21.2385C50.0643 21.5027 49.6049 21.7367 49.1373 21.934C48.918 22.026 48.6791 21.9484 48.557 21.7447C47.8443 20.5576 46.5467 19.8408 45.1592 19.8621C43.7766 19.8879 42.5025 20.6566 41.8348 21.8684C41.7201 22.0764 41.485 22.1633 41.2625 22.0795C40.3012 21.7178 39.4002 21.2209 38.5846 20.6027C38.3951 20.4592 38.3436 20.2135 38.4588 20.0055C39.1309 18.7945 39.1049 17.3059 38.3906 16.1205C37.69 14.9576 36.4221 14.2439 35.067 14.2439C35.0406 14.2439 35.0141 14.2441 34.9879 14.2447C34.9844 14.2449 34.9809 14.2449 34.9773 14.2449C34.7445 14.2449 34.5566 14.0857 34.5186 13.8543C34.3531 12.8453 34.335 11.8164 34.4646 10.7967ZM43.8281 16.9131C44.2244 17.0113 44.6254 17.06 45.0236 17.06C45.9086 17.06 46.7803 16.8197 47.558 16.351C48.6855 15.6715 49.4812 14.5938 49.7982 13.316C50.1152 12.0383 49.9158 10.7137 49.2363 9.58613C48.5568 8.45859 47.4791 7.66289 46.2014 7.3459C44.9236 7.0291 43.599 7.22852 42.4713 7.90801C41.3438 8.58731 40.548 9.66504 40.2313 10.9428C39.9143 12.2205 40.1137 13.5451 40.7934 14.6729C41.4725 15.8006 42.5504 16.5961 43.8281 16.9131ZM42.1268 11.4131C42.318 10.6418 42.7982 9.99121 43.4791 9.58105C43.9584 9.29219 44.4871 9.15469 45.0098 9.15469C46.0193 9.15469 47.0055 9.66797 47.5631 10.5939C47.5633 10.5939 47.5633 10.5939 47.5633 10.5941C47.9734 11.2746 48.0939 12.0744 47.9025 12.8457C47.7111 13.617 47.2309 14.2678 46.55 14.6781C45.8695 15.0883 45.0701 15.2088 44.2982 15.0172C43.527 14.826 42.8764 14.3457 42.466 13.6648C42.0561 12.9844 41.9355 12.1846 42.1268 11.4131Z" fill="black"/>
</svg>
