<svg width="100" height="100" viewBox="0 0 100 100" fill="none" xmlns="http://www.w3.org/2000/svg">
<path d="M50 40.625C44.4374 40.625 38.9997 42.2745 34.3746 45.3649C29.7495 48.4553 26.1446 52.8479 24.0159 57.987C21.8872 63.1262 21.3302 68.7812 22.4154 74.2369C23.5006 79.6926 26.1793 84.704 30.1126 88.6374C34.046 92.5707 39.0574 95.2494 44.5131 96.3346C49.9688 97.4198 55.6238 96.8628 60.763 94.7341C65.9022 92.6054 70.2947 89.0005 73.3851 84.3754C76.4755 79.7503 78.125 74.3126 78.125 68.75C78.125 61.2908 75.1618 54.1371 69.8874 48.8626C64.6129 43.5882 57.4592 40.625 50 40.625ZM50 87.5C46.2916 87.5 42.6665 86.4003 39.5831 84.3401C36.4996 82.2798 34.0964 79.3514 32.6773 75.9253C31.2581 72.4992 30.8868 68.7292 31.6103 65.0921C32.3338 61.4549 34.1195 58.114 36.7418 55.4917C39.364 52.8695 42.7049 51.0837 46.3421 50.3603C49.9792 49.6368 53.7492 50.0081 57.1753 51.4273C60.6014 52.8464 63.5298 55.2496 65.5901 58.3331C67.6503 61.4165 68.75 65.0416 68.75 68.75C68.75 73.7228 66.7746 78.4919 63.2583 82.0083C59.742 85.5246 54.9728 87.5 50 87.5ZM64.2969 52.2344C60.7365 49.1407 56.2674 47.2872 51.5625 46.9531V43.8281C57.1054 44.1814 62.37 46.3819 66.5156 50.0781L64.2969 52.2344ZM48.4375 46.9531C43.7326 47.2872 39.2636 49.1407 35.7031 52.2344L33.4844 50C37.63 46.3038 42.8946 44.1033 48.4375 43.75V46.9531ZM33.4844 54.4531C30.3907 58.0135 28.5372 62.4826 28.2031 67.1875H25.0781C25.4314 61.6446 27.6319 56.38 31.3281 52.2344L33.4844 54.4531ZM28.2031 70.3125C28.5372 75.0174 30.3907 79.4865 33.4844 83.0469L31.25 85.2656C27.5538 81.12 25.3533 75.8554 25 70.3125H28.2031ZM35.7031 85.2656C39.2532 88.3877 43.7233 90.2689 48.4375 90.625V93.75C42.8946 93.3967 37.63 91.1962 33.4844 87.5L35.7031 85.2656ZM51.5625 90.625C56.2674 90.2909 60.7365 88.4375 64.2969 85.3438L66.5156 87.5C62.37 91.1962 57.1054 93.3967 51.5625 93.75V90.625ZM66.5156 83.125C69.6533 79.554 71.5356 75.054 71.875 70.3125H75C74.6467 75.8554 72.4463 81.12 68.75 85.2656L66.5156 83.125ZM71.875 67.1875C71.5409 62.4826 69.6875 58.0135 66.5938 54.4531L68.75 52.2344C72.4463 56.38 74.6467 61.6446 75 67.1875H71.875Z" fill="black"/>
<path d="M51.5625 56.25H48.4375V59.375H45.3125C44.8981 59.375 44.5007 59.5396 44.2076 59.8326C43.9146 60.1257 43.75 60.5231 43.75 60.9375V68.75C43.75 69.1644 43.9146 69.5618 44.2076 69.8549C44.5007 70.1479 44.8981 70.3125 45.3125 70.3125H53.125V75H43.75V78.125H48.4375V81.25H51.5625V78.125H54.6875C55.1019 78.125 55.4993 77.9604 55.7924 77.6674C56.0854 77.3743 56.25 76.9769 56.25 76.5625V68.75C56.25 68.3356 56.0854 67.9382 55.7924 67.6451C55.4993 67.3521 55.1019 67.1875 54.6875 67.1875H46.875V62.5H56.25V59.375H51.5625V56.25Z" fill="black"/>
<path d="M70.3131 28.125H73.4381V48.4375H76.5631V26.5625C76.5631 26.1481 76.3985 25.7507 76.1055 25.4577C75.8125 25.1646 75.415 25 75.0006 25H73.235L79.6881 15.3125L86.1413 25H84.3756C83.9612 25 83.5638 25.1646 83.2708 25.4577C82.9778 25.7507 82.8131 26.1481 82.8131 26.5625V68.75H85.9381V28.125H89.0631C89.3458 28.1243 89.623 28.0468 89.8651 27.901C90.1073 27.7552 90.3053 27.5464 90.4382 27.2969C90.5636 27.0526 90.6224 26.7795 90.6087 26.5052C90.595 26.2308 90.5092 25.965 90.36 25.7344L80.985 11.6719C80.8421 11.4592 80.649 11.2849 80.4229 11.1644C80.1967 11.0439 79.9444 10.9809 79.6881 10.9809C79.4319 10.9809 79.1796 11.0439 78.9534 11.1644C78.7273 11.2849 78.5342 11.4592 78.3913 11.6719L69.0163 25.7344C68.8671 25.965 68.7813 26.2308 68.7676 26.5052C68.7539 26.7795 68.8127 27.0526 68.9381 27.2969C69.071 27.5464 69.269 27.7552 69.5112 27.901C69.7533 28.0468 70.0305 28.1243 70.3131 28.125Z" fill="black"/>
<path d="M10.9379 28.125H14.0629V68.75H17.1879V26.5625C17.1879 26.1481 17.0232 25.7507 16.7302 25.4577C16.4372 25.1646 16.0398 25 15.6254 25H13.8597L20.3129 15.3125L26.766 25H25.0003C24.5859 25 24.1885 25.1646 23.8955 25.4577C23.6025 25.7507 23.4378 26.1481 23.4378 26.5625V48.4375H26.5629V28.125H29.6879C29.9705 28.1243 30.2477 28.0468 30.4898 27.901C30.732 27.7552 30.93 27.5464 31.0628 27.2969C31.1883 27.0526 31.2471 26.7795 31.2334 26.5052C31.2197 26.2308 31.1339 25.965 30.9847 25.7344L21.6097 11.6719C21.4668 11.4592 21.2737 11.2849 21.0476 11.1644C20.8214 11.0439 20.5691 10.9809 20.3129 10.9809C20.0566 10.9809 19.8043 11.0439 19.5781 11.1644C19.352 11.2849 19.1589 11.4592 19.016 11.6719L9.64098 25.7344C9.50384 25.9719 9.43164 26.2414 9.43164 26.5156C9.43164 26.7899 9.50384 27.0594 9.64098 27.2969C9.76732 27.5351 9.95315 27.7365 10.1804 27.8817C10.4077 28.0268 10.6686 28.1106 10.9379 28.125Z" fill="black"/>
<path d="M35.9377 21.875H40.6252V37.5H43.7502V20.3125C43.7502 19.8981 43.5856 19.5007 43.2926 19.2076C42.9996 18.9146 42.6021 18.75 42.1877 18.75H39.4533L50.0002 7.01561L60.5471 18.75H57.8127C57.3983 18.75 57.0009 18.9146 56.7079 19.2076C56.4148 19.5007 56.2502 19.8981 56.2502 20.3125V37.5H59.3752V21.875H64.0627C64.3646 21.8743 64.6599 21.7861 64.9127 21.6212C65.1656 21.4562 65.3653 21.2215 65.4876 20.9455C65.6099 20.6695 65.6496 20.3639 65.6019 20.0658C65.5543 19.7677 65.4213 19.4897 65.219 19.2656L51.1565 3.64061C51.01 3.47949 50.8315 3.35075 50.6324 3.26266C50.4333 3.17457 50.218 3.12906 50.0002 3.12906C49.7825 3.12906 49.5672 3.17457 49.368 3.26266C49.1689 3.35075 48.9904 3.47949 48.844 3.64061L34.7815 19.2656C34.5792 19.4897 34.4462 19.7677 34.3985 20.0658C34.3508 20.3639 34.3906 20.6695 34.5129 20.9455C34.6352 21.2215 34.8348 21.4562 35.0877 21.6212C35.3406 21.7861 35.6358 21.8743 35.9377 21.875Z" fill="black"/>
</svg>
