<svg width="100" height="100" viewBox="0 0 100 100" fill="none" xmlns="http://www.w3.org/2000/svg">
<path d="M9.41777 36.2049C9.72793 36.2668 10.0398 36.2975 10.3496 36.2975C11.4299 36.2975 12.4826 35.9264 13.3359 35.2268C14.4338 34.3268 15.0635 32.9963 15.0635 31.5768V26.1246C15.0635 21.9715 11.6848 18.593 7.53184 18.593C3.37871 18.5926 0 21.9713 0 26.1244V26.7156C0 31.1225 3.13652 34.9485 7.45781 35.8129L9.41777 36.2049ZM2.92969 26.7156V26.1244C2.92969 23.5869 4.99414 21.5225 7.53164 21.5225C10.0691 21.5225 12.1336 23.5869 12.1336 26.1244V31.5766C12.1336 32.1151 11.8947 32.6197 11.4783 32.9612C11.0619 33.3024 10.5203 33.4373 9.99219 33.3321L8.03242 32.9401C5.07578 32.3487 2.92969 29.7309 2.92969 26.7156Z" fill="black"/>
<path d="M33.8561 9.1004H29.7424C28.3961 9.1004 27.301 10.1955 27.301 11.5418V16.1514C27.301 16.9606 27.9568 17.6162 28.7658 17.6162C29.5748 17.6162 30.2307 16.9606 30.2307 16.1514V12.0301H33.3678V87.9699H30.2307V22.9871C30.2307 22.1779 29.5748 21.5223 28.7658 21.5223C27.9568 21.5223 27.301 22.1779 27.301 22.9871V34.4656L25.2684 38.2684C25.0131 38.7459 24.5182 39.0426 23.9766 39.0426H9.38086C5.88086 39.0426 3.0332 41.8901 3.0332 45.3902V76.6072C3.0332 77.4164 3.68906 78.0721 4.49805 78.0721C5.30703 78.0721 5.96289 77.4164 5.96289 76.6072V45.3902C5.96289 43.5057 7.49629 41.9723 9.38086 41.9723H23.9764C25.2709 41.9723 26.4768 41.407 27.3008 40.4527V45.1096H10.565C9.75606 45.1096 9.1002 45.7653 9.1002 46.5744C9.1002 47.3836 9.75606 48.0393 10.565 48.0393H12.1336V60.1117C12.1336 61.0244 11.7781 61.8826 11.1326 62.5283L10.1016 63.5594C9.45606 64.2051 9.10059 65.0633 9.10059 65.9762V82.3914C9.10059 83.7377 10.1957 84.8328 11.542 84.8328H12.726C14.0723 84.8328 15.1674 85.9279 15.1674 87.2742V87.9699H5.96289V83.4432C5.96289 82.634 5.30703 81.9783 4.49805 81.9783C3.68906 81.9783 3.0332 82.634 3.0332 83.4432V88.4582C3.0332 89.8045 4.12832 90.8996 5.47461 90.8996H15.6553C17.0016 90.8996 18.0967 89.8045 18.0967 88.4582V87.2742C18.0967 84.3127 15.6873 81.9031 12.7256 81.9031H12.0299V65.9762C12.0299 65.8459 12.0807 65.7233 12.1729 65.6309L13.2041 64.5996C14.4029 63.4006 15.0631 61.8069 15.0631 60.1115V48.0391H27.3006V88.458C27.3006 89.8043 28.3957 90.8994 29.742 90.8994H33.8557C35.202 90.8994 36.2971 89.8043 36.2971 88.458V11.5418C36.2975 10.1955 35.2021 9.1004 33.8561 9.1004Z" fill="black"/>
<path d="M51.2279 12.6756C51.4332 11.3422 50.5199 10.0965 49.1861 9.89122L45.1203 9.26583C43.7801 9.06134 42.5404 9.97852 42.3361 11.3076L42.1289 12.6539C38.3164 37.435 38.3164 62.565 42.1289 87.3461L42.3361 88.6924C42.5396 90.0158 43.7764 90.9402 45.1203 90.7342L49.1863 90.1088C50.5197 89.9035 51.4332 88.6582 51.2281 87.3244L51.0209 85.9779C47.348 62.1049 47.348 37.8951 51.0209 14.0221L51.2279 12.6756ZM48.1252 86.4234L48.258 87.2871L45.1574 87.7641L45.0244 86.9004C41.2574 62.415 41.2574 37.5848 45.0244 13.0994L45.1574 12.2357L48.258 12.7125L48.1252 13.5764C44.4068 37.7453 44.4068 62.2547 48.1252 86.4234Z" fill="black"/>
<path d="M66.1637 75.4904C58.687 59.291 58.687 40.7092 66.1637 24.5098L70.7338 14.6082C71.2979 13.3857 70.7624 11.9324 69.5403 11.3684L65.8047 9.64434C64.5829 9.08067 63.1293 9.61602 62.5655 10.8383L57.9956 20.7399C49.4129 39.3352 49.4129 60.665 57.9956 79.2604L62.5655 89.1619C63.1295 90.3842 64.5829 90.9197 65.8053 90.3557L69.5405 88.6318C70.7627 88.0678 71.2981 86.6145 70.734 85.392L66.1637 75.4904ZM65.0208 87.491L60.6553 78.0326C52.4329 60.2174 52.4329 39.7824 60.6553 21.9672L65.0208 12.5088L67.8692 13.8232L63.5038 23.2818C55.6668 40.2615 55.6668 59.7381 63.5038 76.7178L67.8692 86.1764L65.0208 87.491Z" fill="black"/>
<path d="M97.5594 43.985H93.5754C92.7664 43.985 92.1105 44.6406 92.1105 45.4498C92.1105 46.259 92.7664 46.9146 93.5754 46.9146H97.0711V53.0854H80.5855C79.2393 53.0854 78.1441 54.1805 78.1441 55.5268V57.8037L66.9963 50L78.1441 42.1963V44.4732C78.1441 45.8195 79.2393 46.9146 80.5855 46.9146H86.7394C87.5484 46.9146 88.2043 46.259 88.2043 45.4498C88.2043 44.6406 87.5484 43.985 86.7394 43.985H81.0738V41.2586C81.0738 40.3449 80.5703 39.515 79.76 39.0932C78.9494 38.6711 77.9811 38.7344 77.2322 39.2584L64.7447 48C64.0926 48.4564 63.7031 49.2041 63.7031 50C63.7031 50.7959 64.0924 51.5436 64.7445 52L77.2324 60.7416C77.6518 61.0352 78.1402 61.1842 78.6313 61.1842C79.0166 61.1842 79.4035 61.0924 79.7598 60.907C80.5701 60.485 81.0738 59.6553 81.0738 58.7414V56.015H97.5594C98.9057 56.015 100.001 54.9199 100.001 53.5736V46.4264C100.001 45.0803 98.9057 43.985 97.5594 43.985Z" fill="black"/>
</svg>
