<svg width="100" height="100" viewBox="0 0 100 100" fill="none" xmlns="http://www.w3.org/2000/svg">
<path d="M72.8809 98H34.6309C33.7996 98 33.1309 97.3313 33.1309 96.5V78.6813C33.1309 77.1562 31.8871 75.9125 30.3621 75.9125H24.1746C22.2496 75.9125 20.4559 74.9562 19.3809 73.3562C18.4184 71.9187 18.3934 70.0125 19.3246 68.4938C19.6434 67.975 19.6809 67.4625 19.4496 66.8938C19.2684 66.45 18.9809 66.1312 18.9746 66.1312C18.0371 65.1937 17.5871 63.8937 17.7121 62.475C17.7184 62.4062 17.6996 62.325 17.6559 62.2562C17.1684 61.4375 17.0496 60.5312 17.2871 59.6H14.5059C13.0371 59.6 11.6809 58.8687 10.8746 57.6437C10.0684 56.4188 9.93713 54.8812 10.5184 53.5312L16.9996 38.5125C17.1434 38.175 17.2246 37.825 17.2309 37.475C17.3371 32.6625 18.3746 28.0063 20.3121 23.6313C22.1809 19.4 24.8121 15.6062 28.1309 12.3562C31.4559 9.10625 35.3059 6.55 39.5746 4.76875C44.0059 2.9375 48.6996 2 53.5309 2C58.4309 2 63.1871 2.9625 67.6621 4.85625C71.9871 6.6875 75.8684 9.3 79.2059 12.6375C82.5434 15.975 85.1559 19.8562 86.9871 24.175C88.8809 28.65 89.8434 33.4063 89.8434 38.3063C89.8434 47.2063 86.5934 55.7687 80.6871 62.4125C76.6246 66.9875 74.3809 72.8875 74.3809 79.0188V96.5C74.3809 97.3313 73.7059 98 72.8809 98ZM36.1309 95H71.3809V79.0188C71.3809 72.15 73.8871 65.5438 78.4434 60.4188C83.8621 54.325 86.8434 46.4688 86.8434 38.3063C86.8434 19.9375 71.8996 5 53.5371 5C35.5809 5 20.6434 19.6 20.2371 37.5438C20.2184 38.2812 20.0621 39.0063 19.7621 39.7L13.2746 54.7125C13.0934 55.1375 13.1309 55.6 13.3871 55.9875C13.6434 56.375 14.0496 56.5938 14.5121 56.5938H18.8309C19.5746 56.5938 20.2496 57 20.5996 57.6562C20.9496 58.3125 20.9059 59.1 20.4934 59.7125C20.1934 60.1562 20.1059 60.5 20.2371 60.7188C20.6059 61.3375 20.7621 62.0312 20.7059 62.7375C20.6559 63.275 20.7934 63.7 21.0996 64.0125C22.0621 64.975 23.4684 67.4812 21.8871 70.0625C21.5684 70.5813 21.5621 71.225 21.8746 71.6875C22.3934 72.4563 23.2496 72.9187 24.1746 72.9187H30.3621C33.5434 72.9187 36.1309 75.5062 36.1309 78.6875V95Z" fill="#212121"/>
<path d="M55.2449 55.4625H51.6762C48.8637 55.4625 46.5762 53.175 46.5762 50.3625V49.3625C46.5762 48.5312 47.2449 47.8625 48.0762 47.8625H58.8387C59.6699 47.8625 60.3387 48.5312 60.3387 49.3625V50.3625C60.3449 53.175 58.0574 55.4625 55.2449 55.4625ZM49.6387 50.8625C49.8637 51.7812 50.6949 52.4625 51.6762 52.4625H55.2449C56.2324 52.4625 57.0574 51.7812 57.2824 50.8625H49.6387Z" fill="#212121"/>
<path d="M53.5199 59.5125H53.4074C50.8324 59.5125 48.7324 57.4187 48.7324 54.8375V53.8312C48.7324 53 49.4012 52.3312 50.2324 52.3312C51.0637 52.3312 51.7324 53 51.7324 53.8312V54.8375C51.7324 55.7625 52.4824 56.5125 53.4074 56.5125H53.5199C54.4449 56.5125 55.1949 55.7625 55.1949 54.8375V53.8312C55.1949 53 55.8637 52.3312 56.6949 52.3312C57.5262 52.3312 58.1949 53 58.1949 53.8312V54.8375C58.1887 57.4187 56.0949 59.5125 53.5199 59.5125Z" fill="#212121"/>
<path d="M53.4688 50.8625C52.6375 50.8625 51.9688 50.1938 51.9688 49.3625V39.8375C51.9688 39.0063 52.6375 38.3375 53.4688 38.3375C54.3 38.3375 54.9688 39.0063 54.9688 39.8375V49.3625C54.9688 50.1938 54.3 50.8625 53.4688 50.8625Z" fill="#212121"/>
<path d="M58.5887 50.8625H48.3387C46.7262 50.8625 45.3449 49.775 44.9762 48.225C44.7824 47.4062 44.3762 46.6375 43.8074 46.0062C41.6637 43.6187 40.4824 40.5375 40.4824 37.3312C40.4824 33.9 41.8074 30.6625 44.2199 28.2187C46.6262 25.775 49.8387 24.4062 53.2637 24.35H53.4637C60.4949 24.35 66.3012 30.0125 66.4449 37.0562C66.5137 40.3687 65.3324 43.55 63.1199 46.0062C62.5512 46.6437 62.1449 47.4125 61.9512 48.225C61.5762 49.7812 60.1949 50.8625 58.5887 50.8625ZM53.4637 27.35C53.4137 27.35 53.3574 27.35 53.3074 27.35C47.8887 27.4312 43.4824 31.9125 43.4824 37.3312C43.4824 39.8 44.3887 42.1687 46.0387 44C46.9449 45.0062 47.5887 46.2312 47.8949 47.5312C47.9387 47.725 48.1262 47.8625 48.3387 47.8625H58.5887C58.8012 47.8625 58.9824 47.725 59.0324 47.5312C59.3449 46.2312 59.9824 45.0062 60.8887 44C62.5887 42.1125 63.4949 39.6687 63.4449 37.1187C63.3324 31.7 58.8699 27.35 53.4637 27.35Z" fill="#212121"/>
<path d="M53.4688 22.3563C52.6375 22.3563 51.9688 21.6875 51.9688 20.8563V16.9062C51.9688 16.075 52.6375 15.4062 53.4688 15.4062C54.3 15.4062 54.9688 16.075 54.9688 16.9062V20.8563C54.9688 21.6813 54.3 22.3563 53.4688 22.3563Z" fill="#212121"/>
<path d="M45.1317 24.5875C44.613 24.5875 44.1067 24.3188 43.8317 23.8375L41.8567 20.4188C41.4442 19.7 41.688 18.7813 42.4067 18.3688C43.1255 17.9563 44.0442 18.2 44.4567 18.9188L46.4317 22.3375C46.8442 23.0563 46.6005 23.975 45.8817 24.3875C45.6442 24.525 45.388 24.5875 45.1317 24.5875Z" fill="#212121"/>
<path d="M39.0189 30.6938C38.7626 30.6938 38.5064 30.6313 38.2689 30.4938L34.8501 28.5188C34.1314 28.1063 33.8876 27.1875 34.3001 26.4688C34.7126 25.75 35.6314 25.5063 36.3501 25.9188L39.7689 27.8938C40.4876 28.3063 40.7314 29.225 40.3189 29.9438C40.0439 30.425 39.5376 30.6938 39.0189 30.6938Z" fill="#212121"/>
<path d="M36.7879 39.0375H32.8379C32.0066 39.0375 31.3379 38.3687 31.3379 37.5375C31.3379 36.7062 32.0066 36.0375 32.8379 36.0375H36.7879C37.6191 36.0375 38.2879 36.7062 38.2879 37.5375C38.2879 38.3687 37.6191 39.0375 36.7879 39.0375Z" fill="#212121"/>
<path d="M35.606 49.35C35.0872 49.35 34.581 49.0813 34.306 48.6C33.8935 47.8813 34.1372 46.9625 34.856 46.55L38.2747 44.575C38.9935 44.1625 39.9122 44.4063 40.3247 45.125C40.7372 45.8438 40.4935 46.7625 39.7747 47.175L36.356 49.15C36.1122 49.2875 35.856 49.35 35.606 49.35Z" fill="#212121"/>
<path d="M71.3372 49.35C71.081 49.35 70.8247 49.2875 70.5872 49.15L67.1685 47.175C66.4497 46.7625 66.206 45.8438 66.6185 45.125C67.031 44.4063 67.9497 44.1625 68.6685 44.575L72.0872 46.55C72.806 46.9625 73.0497 47.8813 72.6372 48.6C72.3622 49.0813 71.856 49.35 71.3372 49.35Z" fill="#212121"/>
<path d="M74.1004 39.0375H70.1504C69.3191 39.0375 68.6504 38.3687 68.6504 37.5375C68.6504 36.7062 69.3191 36.0375 70.1504 36.0375H74.1004C74.9316 36.0375 75.6004 36.7062 75.6004 37.5375C75.6004 38.3687 74.9316 39.0375 74.1004 39.0375Z" fill="#212121"/>
<path d="M67.9185 30.6938C67.3997 30.6938 66.8935 30.425 66.6185 29.9438C66.206 29.225 66.4497 28.3063 67.1685 27.8938L70.5872 25.9188C71.306 25.5063 72.2247 25.75 72.6372 26.4688C73.0497 27.1875 72.806 28.1063 72.0872 28.5188L68.6685 30.4938C68.431 30.6313 68.1747 30.6938 67.9185 30.6938Z" fill="#212121"/>
<path d="M61.813 24.5875C61.5567 24.5875 61.3005 24.525 61.063 24.3875C60.3442 23.975 60.1005 23.0563 60.513 22.3375L62.488 18.9188C62.9005 18.2 63.8192 17.9563 64.538 18.3688C65.2567 18.7813 65.5005 19.7 65.088 20.4188L63.113 23.8375C62.8317 24.3188 62.3317 24.5875 61.813 24.5875Z" fill="#212121"/>
<path d="M53.4682 41.3375C53.062 41.3375 52.6682 41.1688 52.387 40.875C52.087 40.5625 51.7432 40.2625 51.3745 40C50.9182 39.6688 50.412 39.3813 49.8807 39.1375C49.1245 38.8 48.787 37.9125 49.1307 37.1563C49.4682 36.4 50.3557 36.0625 51.112 36.4063C51.8307 36.7313 52.512 37.125 53.137 37.575C53.2495 37.6563 53.362 37.7438 53.4745 37.825C53.587 37.7375 53.6995 37.6563 53.812 37.575C54.4307 37.125 55.112 36.7313 55.837 36.4063C56.5932 36.0688 57.4807 36.4 57.8182 37.1563C58.1557 37.9125 57.8245 38.8 57.0682 39.1375C56.5307 39.3813 56.0307 39.6688 55.5745 40C55.2057 40.2688 54.862 40.5625 54.562 40.8812C54.2682 41.175 53.8745 41.3375 53.4682 41.3375Z" fill="#212121"/>
</svg>
